<svg width="346" height="89" viewBox="0 0 346 89" fill="none" xmlns="http://www.w3.org/2000/svg">
<path d="M156.01 21.7331H164.879H174.747M18.2354 20.2709V14.5845C18.2354 13.8052 18.0812 13.0721 17.7729 12.3853C17.478 11.6852 17.0692 11.0776 16.5464 10.5625C16.0237 10.0473 15.4071 9.64446 14.6966 9.35387C13.9996 9.05007 13.2557 8.89817 12.4648 8.89817C11.6739 8.89817 10.9233 9.05007 10.2128 9.35387C9.51582 9.64446 8.90591 10.0473 8.38314 10.5625C7.86037 11.0776 7.44483 11.6852 7.13653 12.3853C6.84163 13.0721 6.69418 13.8052 6.69418 14.5845V20.2709H18.2354ZM24.006 31.6238H18.2354V25.9375H6.69418V31.6238H0.94368V14.5845C0.94368 13.0127 1.24528 11.5399 1.84848 10.1662C2.45168 8.77929 3.26935 7.57069 4.30149 6.54041C5.34704 5.51012 6.56684 4.69779 7.9609 4.10339C9.36837 3.509 10.8697 3.2118 12.4648 3.2118C14.0599 3.2118 15.5545 3.509 16.9486 4.10339C18.356 4.69779 19.5825 5.51012 20.6281 6.54041C21.6736 7.57069 22.498 8.77929 23.1012 10.1662C23.7044 11.5399 24.006 13.0127 24.006 14.5845V31.6238ZM43.5497 20.8257C43.5497 20.086 43.4022 19.3727 43.1073 18.6859C42.8258 17.9858 42.4371 17.3716 41.9411 16.8432C41.4452 16.3017 40.8621 15.8724 40.1919 15.5554C39.535 15.2252 38.8313 15.0601 38.0807 15.0601C37.33 15.0601 36.6196 15.1855 35.9494 15.4365C35.2925 15.6875 34.7162 16.0573 34.2202 16.546C33.7376 17.0348 33.3556 17.6424 33.0741 18.3688C32.7926 19.0821 32.6519 19.9011 32.6519 20.8257C32.6519 21.7107 32.7926 22.5098 33.0741 23.2231C33.3556 23.9231 33.7376 24.5241 34.2202 25.0261C34.7162 25.528 35.2925 25.9176 35.9494 26.195C36.6196 26.4592 37.33 26.5913 38.0807 26.5913C38.8313 26.5913 39.535 26.4328 40.1919 26.1158C40.8621 25.7856 41.4452 25.3563 41.9411 24.8279C42.4371 24.2864 42.8258 23.6722 43.1073 22.9853C43.4022 22.2852 43.5497 21.5654 43.5497 20.8257ZM49.079 28.9491C49.079 30.4416 48.7908 31.8418 48.2144 33.1494C47.638 34.4571 46.8472 35.5997 45.8418 36.5771C44.8499 37.5546 43.6837 38.3273 42.3433 38.8952C41.0162 39.4632 39.5954 39.7472 38.0807 39.7472L35.3261 39.7076V34.2986L38.0405 34.3382C38.8983 34.3382 39.6289 34.2259 40.2321 34.0014C40.8353 33.7901 41.3446 33.4929 41.7602 33.1098C42.1757 32.74 42.5041 32.3107 42.7454 31.822C43.0001 31.3332 43.2012 30.8181 43.3486 30.2765C43.1341 30.62 42.8258 30.9039 42.4237 31.1285C42.0216 31.3398 41.5725 31.5116 41.0766 31.6436C40.594 31.7889 40.0846 31.888 39.5485 31.9408C39.0257 31.9937 38.5364 32.0201 38.0807 32.0201C36.566 32.0201 35.1384 31.7625 33.798 31.2474C32.4709 30.7322 31.3047 29.9991 30.2994 29.0481C29.3075 28.0839 28.5233 26.9083 27.9469 25.5214C27.3705 24.1345 27.0823 22.5692 27.0823 20.8257C27.0823 19.2274 27.3705 17.7414 27.9469 16.3677C28.5233 14.994 29.3075 13.8052 30.2994 12.8014C31.3047 11.7975 32.4709 11.0116 33.798 10.4436C35.1384 9.87562 36.566 9.59163 38.0807 9.59163C38.7777 9.59163 39.468 9.67748 40.1516 9.8492C40.8353 10.0209 41.4988 10.2587 42.1422 10.5625C42.7856 10.8663 43.3955 11.2229 43.9719 11.6324C44.5617 12.0419 45.1113 12.4843 45.6207 12.9599L47.752 10.4436H49.079V28.9491ZM61.8467 26.4328C62.0612 26.4988 62.2757 26.5451 62.4901 26.5715C62.7046 26.5847 62.9191 26.5913 63.1336 26.5913C63.6697 26.5913 64.1858 26.5186 64.6818 26.3733C65.1777 26.2281 65.6402 26.0233 66.0691 25.7591C66.5115 25.4818 66.9002 25.1515 67.2353 24.7685C67.5838 24.3722 67.8653 23.9363 68.0798 23.4608L72.1011 27.4433C71.5918 28.1565 71.002 28.7972 70.3317 29.3651C69.6749 29.9331 68.9578 30.4152 68.1803 30.8115C67.4163 31.2077 66.6053 31.5049 65.7474 31.7031C64.9029 31.9144 64.0317 32.0201 63.1336 32.0201C61.6189 32.0201 60.1913 31.7427 58.8508 31.1879C57.5238 30.6332 56.3576 29.8605 55.3523 28.8698C54.3604 27.8791 53.5762 26.7036 52.9998 25.3431C52.4234 23.9694 52.1352 22.4636 52.1352 20.8257C52.1352 19.1482 52.4234 17.6159 52.9998 16.229C53.5762 14.8421 54.3604 13.6599 55.3523 12.6825C56.3576 11.705 57.5238 10.9455 58.8508 10.404C60.1913 9.86241 61.6189 9.59163 63.1336 9.59163C64.0317 9.59163 64.9096 9.6973 65.7675 9.90864C66.6254 10.12 67.4364 10.4238 68.2004 10.82C68.9779 11.2163 69.7017 11.705 70.3719 12.2862C71.0422 12.8542 71.632 13.4948 72.1413 14.2081L61.8467 26.4328ZM64.6617 15.278C64.407 15.1855 64.1523 15.1261 63.8976 15.0997C63.6563 15.0733 63.4016 15.0601 63.1336 15.0601C62.3829 15.0601 61.6725 15.1987 61.0022 15.4761C60.3454 15.7403 59.769 16.1234 59.2731 16.6253C58.7905 17.1272 58.4085 17.7348 58.127 18.4481C57.8455 19.1482 57.7048 19.9407 57.7048 20.8257C57.7048 21.0238 57.7115 21.2484 57.7249 21.4993C57.7517 21.7503 57.7852 22.0079 57.8254 22.272C57.879 22.523 57.9393 22.7674 58.0064 23.0051C58.0734 23.2429 58.1605 23.4542 58.2677 23.6391L64.6617 15.278ZM56.619 5.37143L62.0478 0.338898L67.6173 5.37143L65.3453 8.20471L62.1282 5.31199L59.0921 8.12546L56.619 5.37143ZM80.4052 31.6238H74.9161V10.404H76.2431L78.0527 12.4645C78.9374 11.672 79.936 11.0644 81.0486 10.6417C82.1746 10.2058 83.3474 9.98789 84.5673 9.98789C85.8809 9.98789 87.1208 10.2389 88.287 10.7408C89.4532 11.2295 90.4719 11.9098 91.3432 12.7815C92.2145 13.6401 92.8981 14.6506 93.3941 15.813C93.9034 16.9621 94.1581 18.1905 94.1581 19.4982V31.6238H88.669V19.4982C88.669 18.9434 88.5618 18.4217 88.3473 17.933C88.1328 17.431 87.8379 16.9951 87.4626 16.6253C87.0873 16.2554 86.6516 15.9649 86.1557 15.7535C85.6597 15.5422 85.1302 15.4365 84.5673 15.4365C83.9909 15.4365 83.448 15.5422 82.9386 15.7535C82.4292 15.9649 81.9869 16.2554 81.6116 16.6253C81.2362 16.9951 80.9413 17.431 80.7269 17.933C80.5124 18.4217 80.4052 18.9434 80.4052 19.4982V31.6238ZM116.899 14.6242L112.877 18.6066C112.676 18.0518 112.402 17.5565 112.053 17.1206C111.705 16.6715 111.309 16.2951 110.867 15.9913C110.438 15.6875 109.969 15.4563 109.459 15.2978C108.95 15.1393 108.427 15.0601 107.891 15.0601C107.14 15.0601 106.43 15.212 105.76 15.5158C105.103 15.8196 104.526 16.2488 104.03 16.8036C103.548 17.3452 103.166 17.9924 102.884 18.7453C102.603 19.4982 102.462 20.3303 102.462 21.2417C102.462 21.9814 102.603 22.6749 102.884 23.3221C103.166 23.9694 103.548 24.5373 104.03 25.0261C104.526 25.5148 105.103 25.8978 105.76 26.1752C106.43 26.4526 107.14 26.5913 107.891 26.5913C108.427 26.5913 108.943 26.5186 109.439 26.3733C109.935 26.2281 110.398 26.0233 110.827 25.7591C111.269 25.4818 111.658 25.1515 111.993 24.7685C112.341 24.3722 112.623 23.9363 112.837 23.4608L116.859 27.4433C116.349 28.1565 115.759 28.7972 115.089 29.3651C114.432 29.9331 113.715 30.4152 112.938 30.8115C112.174 31.2077 111.363 31.5049 110.505 31.7031C109.66 31.9144 108.789 32.0201 107.891 32.0201C106.376 32.0201 104.949 31.7427 103.608 31.1879C102.281 30.62 101.115 29.8473 100.11 28.8698C99.1178 27.8924 98.3336 26.7498 97.7572 25.4421C97.1808 24.1345 96.8926 22.7343 96.8926 21.2417C96.8926 19.6171 97.1808 18.0981 97.7572 16.6847C98.3336 15.2714 99.1178 14.043 100.11 12.9995C101.115 11.9428 102.281 11.1106 103.608 10.503C104.949 9.89543 106.376 9.59163 107.891 9.59163C108.789 9.59163 109.667 9.7039 110.525 9.92845C111.396 10.153 112.221 10.4832 112.998 10.9191C113.789 11.3418 114.513 11.8635 115.17 12.4843C115.84 13.1052 116.416 13.8184 116.899 14.6242ZM126.067 4.63835C126.067 5.14028 125.967 5.60919 125.766 6.04508C125.578 6.48097 125.317 6.86402 124.982 7.19424C124.647 7.51125 124.251 7.76882 123.795 7.96695C123.353 8.15187 122.877 8.24434 122.368 8.24434C121.858 8.24434 121.376 8.15187 120.92 7.96695C120.478 7.76882 120.089 7.51125 119.754 7.19424C119.432 6.86402 119.171 6.48097 118.97 6.04508C118.782 5.60919 118.688 5.14028 118.688 4.63835C118.688 4.14962 118.782 3.68732 118.97 3.25143C119.171 2.80233 119.432 2.41928 119.754 2.10227C120.089 1.77205 120.478 1.51448 120.92 1.32955C121.376 1.13142 121.858 1.03236 122.368 1.03236C122.877 1.03236 123.353 1.13142 123.795 1.32955C124.251 1.51448 124.647 1.77205 124.982 2.10227C125.317 2.41928 125.578 2.80233 125.766 3.25143C125.967 3.68732 126.067 4.14962 126.067 4.63835ZM125.122 31.6238H119.593V10.404H125.122V31.6238ZM150.175 31.6238H148.848L146.717 28.7113C146.194 29.1736 145.638 29.6095 145.048 30.019C144.472 30.4152 143.862 30.7653 143.218 31.0691C142.575 31.3596 141.911 31.5908 141.228 31.7625C140.558 31.9342 139.874 32.0201 139.177 32.0201C137.662 32.0201 136.235 31.7691 134.894 31.2672C133.567 30.7653 132.401 30.0388 131.396 29.0877C130.404 28.1235 129.62 26.9479 129.043 25.561C128.467 24.1741 128.179 22.5956 128.179 20.8257C128.179 19.1746 128.467 17.6622 129.043 16.2885C129.62 14.9015 130.404 13.7128 131.396 12.7221C132.401 11.7314 133.567 10.9653 134.894 10.4238C136.235 9.86901 137.662 9.59163 139.177 9.59163C139.874 9.59163 140.564 9.67748 141.248 9.8492C141.932 10.0209 142.595 10.2587 143.238 10.5625C143.882 10.8663 144.492 11.2229 145.068 11.6324C145.658 12.0419 146.208 12.4843 146.717 12.9599L148.848 10.4436H150.175V31.6238ZM144.646 20.8257C144.646 20.086 144.498 19.3727 144.204 18.6859C143.922 17.9858 143.533 17.3716 143.037 16.8432C142.541 16.3017 141.958 15.8724 141.288 15.5554C140.631 15.2252 139.928 15.0601 139.177 15.0601C138.426 15.0601 137.716 15.1855 137.046 15.4365C136.389 15.6875 135.812 16.0573 135.316 16.546C134.834 17.0348 134.452 17.6424 134.17 18.3688C133.889 19.0821 133.748 19.9011 133.748 20.8257C133.748 21.7503 133.889 22.5758 134.17 23.3023C134.452 24.0156 134.834 24.6166 135.316 25.1053C135.812 25.594 136.389 25.9639 137.046 26.2148C137.716 26.4658 138.426 26.5913 139.177 26.5913C139.928 26.5913 140.631 26.4328 141.288 26.1158C141.958 25.7856 142.541 25.3563 143.037 24.8279C143.533 24.2864 143.922 23.6722 144.204 22.9853C144.498 22.2852 144.646 21.5654 144.646 20.8257ZM37.1357 83.0488C35.125 84.7527 32.873 86.0604 30.3798 86.9718C27.8866 87.8832 25.3029 88.3389 22.6287 88.3389C20.5778 88.3389 18.5973 88.0714 16.6872 87.5365C14.7972 87.0213 13.0177 86.2882 11.3489 85.3372C9.70013 84.3664 8.19213 83.2073 6.82488 81.86C5.45762 80.5127 4.28138 79.0267 3.29616 77.4021C2.33104 75.7576 1.57704 74.0041 1.03416 72.1417C0.511387 70.2594 0.25 68.3078 0.25 66.2869C0.25 64.2659 0.511387 62.3144 1.03416 60.4321C1.57704 58.5499 2.33104 56.7964 3.29616 55.1717C4.28138 53.5272 5.45762 52.0313 6.82488 50.6841C8.19213 49.3368 9.70013 48.1876 11.3489 47.2366C13.0177 46.2657 14.7972 45.5227 16.6872 45.0076C18.5973 44.4726 20.5778 44.2052 22.6287 44.2052C25.3029 44.2052 27.8866 44.6609 30.3798 45.5723C32.873 46.4639 35.125 47.7715 37.1357 49.4953L32.5513 56.9252C31.2846 55.5779 29.7867 54.5476 28.0575 53.8343C26.3283 53.1013 24.5187 52.7347 22.6287 52.7347C20.7186 52.7347 18.9291 53.0914 17.2602 53.8046C15.5914 54.5179 14.1336 55.4887 12.887 56.7171C11.6404 57.9257 10.6552 59.3622 9.93135 61.0265C9.20751 62.671 8.84559 64.4245 8.84559 66.2869C8.84559 68.1493 9.20751 69.9028 9.93135 71.5473C10.6552 73.1719 11.6404 74.5985 12.887 75.8269C14.1336 77.0553 15.5914 78.0262 17.2602 78.7394C18.9291 79.4527 20.7186 79.8093 22.6287 79.8093C24.5187 79.8093 26.3283 79.4527 28.0575 78.7394C29.7867 78.0064 31.2846 76.9662 32.5513 75.6189L37.1357 83.0488ZM49.5314 87.4176H41.2977V55.5878H43.2883L46.0027 59.3622C47.3297 58.1734 48.8377 57.262 50.5267 56.628C52.2156 55.9742 53.9649 55.6472 55.7745 55.6472H63.0431V63.731H55.7745C54.9099 63.731 54.0956 63.8895 53.3316 64.2065C52.5675 64.5235 51.904 64.9594 51.341 65.5142C50.778 66.069 50.3357 66.7228 50.014 67.4757C49.6923 68.2286 49.5314 69.031 49.5314 69.883V87.4176ZM76.5849 46.9394C76.5849 47.6923 76.4341 48.3956 76.1325 49.0495C75.851 49.7033 75.4589 50.2779 74.9563 50.7732C74.4536 51.2487 73.8605 51.6351 73.1768 51.9323C72.5133 52.2097 71.7995 52.3484 71.0355 52.3484C70.2714 52.3484 69.5476 52.2097 68.864 51.9323C68.2004 51.6351 67.6173 51.2487 67.1147 50.7732C66.6321 50.2779 66.24 49.7033 65.9384 49.0495C65.6569 48.3956 65.5162 47.6923 65.5162 46.9394C65.5162 46.2063 65.6569 45.5128 65.9384 44.859C66.24 44.1853 66.6321 43.6108 67.1147 43.1353C67.6173 42.6399 68.2004 42.2536 68.864 41.9762C69.5476 41.679 70.2714 41.5304 71.0355 41.5304C71.7995 41.5304 72.5133 41.679 73.1768 41.9762C73.8605 42.2536 74.4536 42.6399 74.9563 43.1353C75.4589 43.6108 75.851 44.1853 76.1325 44.859C76.4341 45.5128 76.5849 46.2063 76.5849 46.9394ZM75.1674 87.4176H66.8734V55.5878H75.1674V87.4176ZM112.747 87.4176H110.756L107.559 83.0488C106.775 83.7422 105.941 84.3961 105.056 85.0103C104.191 85.6047 103.276 86.1297 102.311 86.5854C101.346 87.0213 100.351 87.3681 99.3255 87.6256C98.3202 87.8832 97.2948 88.012 96.2492 88.012C93.9772 88.012 91.8358 87.6355 89.8251 86.8826C87.8346 86.1297 86.0853 85.04 84.5773 83.6135C83.0894 82.1671 81.9132 80.4037 81.0486 78.3234C80.184 76.243 79.7517 73.8753 79.7517 71.2204C79.7517 68.7437 80.184 66.4751 81.0486 64.4146C81.9132 62.3342 83.0894 60.551 84.5773 59.065C86.0853 57.579 87.8346 56.4299 89.8251 55.6175C91.8358 54.7854 93.9772 54.3693 96.2492 54.3693C97.2948 54.3693 98.3303 54.4981 99.3557 54.7556C100.381 55.0132 101.376 55.3699 102.342 55.8256C103.307 56.2813 104.221 56.8162 105.086 57.4304C105.971 58.0446 106.795 58.7084 107.559 59.4216L110.756 55.6472H112.747V87.4176ZM104.453 71.2204C104.453 70.1108 104.232 69.0409 103.789 68.0106C103.367 66.9605 102.784 66.0392 102.04 65.2467C101.296 64.4344 100.421 63.7904 99.416 63.3149C98.4308 62.8196 97.3752 62.5719 96.2492 62.5719C95.1232 62.5719 94.0576 62.7602 93.0523 63.1366C92.067 63.5131 91.2024 64.0678 90.4585 64.8009C89.7347 65.534 89.1616 66.4454 88.7394 67.5351C88.3171 68.605 88.106 69.8334 88.106 71.2204C88.106 72.6073 88.3171 73.8456 88.7394 74.9353C89.1616 76.0052 89.7347 76.9067 90.4585 77.6398C91.2024 78.3729 92.067 78.9277 93.0523 79.3041C94.0576 79.6806 95.1232 79.8688 96.2492 79.8688C97.3752 79.8688 98.4308 79.631 99.416 79.1555C100.421 78.6602 101.296 78.0163 102.04 77.2237C102.784 76.4114 103.367 75.4901 103.789 74.4598C104.232 73.4097 104.453 72.3299 104.453 71.2204ZM135.246 87.4176C133.256 87.4176 131.386 87.051 129.636 86.318C127.887 85.5651 126.349 84.5447 125.022 83.2568C123.715 81.9492 122.679 80.4335 121.915 78.7097C121.171 76.986 120.799 75.1434 120.799 73.1819V63.731H116.788V55.6472H120.799V42.9272H129.003V55.6472H141.489V63.731H129.003V73.1819C129.003 74.0338 129.164 74.8363 129.486 75.5892C129.807 76.3222 130.25 76.9662 130.813 77.5209C131.376 78.0757 132.039 78.5215 132.803 78.8583C133.567 79.1753 134.381 79.3338 135.246 79.3338H141.489V87.4176H135.246ZM155.845 46.9394C155.845 47.6923 155.695 48.3956 155.393 49.0495C155.111 49.7033 154.719 50.2779 154.217 50.7732C153.714 51.2487 153.121 51.6351 152.437 51.9323C151.774 52.2097 151.06 52.3484 150.296 52.3484C149.532 52.3484 148.808 52.2097 148.124 51.9323C147.461 51.6351 146.878 51.2487 146.375 50.7732C145.893 50.2779 145.5 49.7033 145.199 49.0495C144.917 48.3956 144.777 47.6923 144.777 46.9394C144.777 46.2063 144.917 45.5128 145.199 44.859C145.5 44.1853 145.893 43.6108 146.375 43.1353C146.878 42.6399 147.461 42.2536 148.124 41.9762C148.808 41.679 149.532 41.5304 150.296 41.5304C151.06 41.5304 151.774 41.679 152.437 41.9762C153.121 42.2536 153.714 42.6399 154.217 43.1353C154.719 43.6108 155.111 44.1853 155.393 44.859C155.695 45.5128 155.845 46.2063 155.845 46.9394ZM154.428 87.4176H146.134V55.5878H154.428V87.4176ZM169.9 87.4176L157.595 55.5878H166.974L174.032 75.4406L181.059 55.5878H190.469L178.164 87.4176H169.9ZM223.916 87.4176H221.926L218.729 83.0488C217.945 83.7422 217.11 84.3961 216.226 85.0103C215.361 85.6047 214.446 86.1297 213.481 86.5854C212.516 87.0213 211.521 87.3681 210.495 87.6256C209.49 87.8832 208.464 88.012 207.419 88.012C205.147 88.012 203.005 87.6355 200.995 86.8826C199.004 86.1297 197.255 85.04 195.747 83.6135C194.259 82.1671 193.083 80.4037 192.218 78.3234C191.354 76.243 190.921 73.8753 190.921 71.2204C190.921 68.7437 191.354 66.4751 192.218 64.4146C193.083 62.3342 194.259 60.551 195.747 59.065C197.255 57.579 199.004 56.4299 200.995 55.6175C203.005 54.7854 205.147 54.3693 207.419 54.3693C208.464 54.3693 209.5 54.4981 210.525 54.7556C211.551 55.0132 212.546 55.3699 213.511 55.8256C214.476 56.2813 215.391 56.8162 216.256 57.4304C217.14 58.0446 217.965 58.7084 218.729 59.4216L221.926 55.6472H223.916V87.4176ZM215.622 71.2204C215.622 70.1108 215.401 69.0409 214.959 68.0106C214.537 66.9605 213.954 66.0392 213.21 65.2467C212.466 64.4344 211.591 63.7904 210.586 63.3149C209.6 62.8196 208.545 62.5719 207.419 62.5719C206.293 62.5719 205.227 62.7602 204.222 63.1366C203.237 63.5131 202.372 64.0678 201.628 64.8009C200.904 65.534 200.331 66.4454 199.909 67.5351C199.487 68.605 199.276 69.8334 199.276 71.2204C199.276 72.6073 199.487 73.8456 199.909 74.9353C200.331 76.0052 200.904 76.9067 201.628 77.6398C202.372 78.3729 203.237 78.9277 204.222 79.3041C205.227 79.6806 206.293 79.8688 207.419 79.8688C208.545 79.8688 209.6 79.631 210.586 79.1555C211.591 78.6602 212.466 78.0163 213.21 77.2237C213.954 76.4114 214.537 75.4901 214.959 74.4598C215.401 73.4097 215.622 72.3299 215.622 71.2204ZM274.012 75.2325C274.012 76.9959 273.67 78.6602 272.987 80.2254C272.323 81.7708 271.398 83.128 270.212 84.297C269.046 85.4462 267.668 86.3576 266.08 87.0312C264.512 87.6851 262.833 88.012 261.043 88.012C259.435 88.012 257.887 87.7346 256.399 87.1798C254.931 86.6251 253.604 85.8127 252.418 84.7428C251.231 85.8127 249.894 86.6251 248.406 87.1798C246.918 87.7346 245.37 88.012 243.762 88.012C241.972 88.012 240.283 87.6851 238.695 87.0312C237.126 86.3576 235.749 85.4462 234.563 84.297C233.397 83.128 232.472 81.7708 231.788 80.2254C231.125 78.6602 230.793 76.9959 230.793 75.2325V44.7996H239.449V75.2325C239.449 75.8269 239.559 76.3916 239.781 76.9265C240.002 77.4417 240.303 77.8974 240.685 78.2936C241.087 78.6701 241.55 78.9673 242.073 79.1852C242.595 79.4032 243.158 79.5121 243.762 79.5121C244.365 79.5121 244.928 79.4032 245.451 79.1852C245.973 78.9673 246.426 78.6701 246.808 78.2936C247.21 77.8974 247.522 77.4417 247.743 76.9265C247.964 76.3916 248.075 75.8269 248.075 75.2325V44.7996H256.73V75.2325C256.73 75.8269 256.841 76.3916 257.062 76.9265C257.283 77.4417 257.585 77.8974 257.967 78.2936C258.369 78.6701 258.832 78.9673 259.354 79.1852C259.877 79.4032 260.44 79.5121 261.043 79.5121C261.647 79.5121 262.21 79.4032 262.732 79.1852C263.255 78.9673 263.707 78.6701 264.089 78.2936C264.492 77.8974 264.803 77.4417 265.024 76.9265C265.266 76.3916 265.386 75.8269 265.386 75.2325V44.7996H274.012V75.2325ZM293.315 79.631C293.636 79.7301 293.958 79.7994 294.28 79.8391C294.601 79.8589 294.923 79.8688 295.245 79.8688C296.049 79.8688 296.823 79.7598 297.567 79.5419C298.311 79.3239 299.005 79.0168 299.648 78.6206C300.312 78.2045 300.895 77.7092 301.397 77.1346C301.92 76.5402 302.342 75.8864 302.664 75.1731L308.696 81.1467C307.932 82.2166 307.047 83.1776 306.042 84.0295C305.057 84.8815 303.981 85.6047 302.815 86.1991C301.669 86.7935 300.452 87.2393 299.166 87.5365C297.899 87.8535 296.592 88.012 295.245 88.012C292.973 88.012 290.831 87.5959 288.821 86.7638C286.83 85.9316 285.081 84.7725 283.573 83.2866C282.085 81.8006 280.909 80.0372 280.044 77.9964C279.18 75.9359 278.747 73.6772 278.747 71.2204C278.747 68.7041 279.18 66.4058 280.044 64.3254C280.909 62.245 282.085 60.4717 283.573 59.0056C285.081 57.5394 286.83 56.4001 288.821 55.5878C290.831 54.7755 292.973 54.3693 295.245 54.3693C296.592 54.3693 297.909 54.5278 299.196 54.8448C300.483 55.1618 301.699 55.6175 302.845 56.2119C304.011 56.8063 305.097 57.5394 306.102 58.4112C307.108 59.2631 307.992 60.2241 308.756 61.294L293.315 79.631ZM297.537 62.8988C297.155 62.7602 296.773 62.671 296.391 62.6314C296.029 62.5917 295.647 62.5719 295.245 62.5719C294.119 62.5719 293.053 62.78 292.048 63.196C291.063 63.5923 290.198 64.1669 289.454 64.9198C288.73 65.6727 288.157 66.5841 287.735 67.654C287.313 68.7041 287.102 69.8929 287.102 71.2204C287.102 71.5176 287.112 71.8544 287.132 72.2308C287.172 72.6073 287.222 72.9936 287.283 73.3899C287.363 73.7663 287.453 74.1329 287.554 74.4895C287.654 74.8462 287.785 75.1632 287.946 75.4406L297.537 62.8988ZM345.25 71.2204C345.25 73.7168 344.818 75.9953 343.953 78.0559C343.089 80.1165 341.912 81.8897 340.424 83.3757C338.937 84.8419 337.187 85.9811 335.177 86.7935C333.186 87.6058 331.045 88.012 328.753 88.012C326.48 88.012 324.339 87.5959 322.328 86.7638C320.338 85.9316 318.589 84.7725 317.081 83.2866C315.593 81.8006 314.416 80.0372 313.552 77.9964C312.687 75.9359 312.255 73.6772 312.255 71.2204V42.9272H320.519V57.7871C320.961 57.2323 321.494 56.737 322.117 56.3011C322.761 55.8652 323.444 55.5086 324.168 55.2312C324.912 54.9538 325.676 54.7457 326.46 54.6071C327.244 54.4485 328.009 54.3693 328.753 54.3693C331.045 54.3693 333.186 54.7953 335.177 55.6472C337.187 56.4794 338.937 57.6484 340.424 59.1542C341.912 60.66 343.089 62.4431 343.953 64.5037C344.818 66.5445 345.25 68.7833 345.25 71.2204ZM336.956 71.2204C336.956 69.9919 336.735 68.8527 336.292 67.8026C335.87 66.7327 335.287 65.8114 334.543 65.0387C333.799 64.266 332.925 63.6617 331.919 63.2258C330.934 62.7899 329.878 62.5719 328.753 62.5719C327.627 62.5719 326.561 62.8196 325.556 63.3149C324.57 63.7904 323.706 64.4344 322.962 65.2467C322.218 66.0392 321.635 66.9605 321.212 68.0106C320.79 69.0409 320.579 70.1108 320.579 71.2204C320.579 72.4488 320.79 73.588 321.212 74.6381C321.635 75.6882 322.218 76.5996 322.962 77.3723C323.706 78.145 324.57 78.7592 325.556 79.215C326.561 79.6508 327.627 79.8688 328.753 79.8688C329.878 79.8688 330.934 79.6508 331.919 79.215C332.925 78.7592 333.799 78.145 334.543 77.3723C335.287 76.5996 335.87 75.6882 336.292 74.6381C336.735 73.588 336.956 72.4488 336.956 71.2204Z" stroke="url(#paint0_linear_19_55)" stroke-width="0.5"/>
<defs>
<linearGradient id="paint0_linear_19_55" x1="153.01" y1="25.5372" x2="178.747" y2="25.5372" gradientUnits="userSpaceOnUse">
<stop stop-color="#382159"/>
<stop offset="1" stop-color="#AB35DC"/>
</linearGradient>
</defs>
</svg>
