<svg width="120" height="31" viewBox="0 0 120 31" fill="none" xmlns="http://www.w3.org/2000/svg">
<path d="M6.25579 7.0215V5.01835C6.25579 4.74382 6.20217 4.48557 6.09494 4.24361C5.99237 3.997 5.85016 3.78296 5.66833 3.60149C5.48649 3.42002 5.27202 3.2781 5.02491 3.17573C4.78247 3.06871 4.52371 3.0152 4.24862 3.0152C3.97354 3.0152 3.71245 3.06871 3.46534 3.17573C3.22289 3.2781 3.01075 3.42002 2.82892 3.60149C2.64708 3.78296 2.50255 3.997 2.39531 4.24361C2.29274 4.48557 2.24145 4.74382 2.24145 5.01835V7.0215H6.25579ZM8.26296 11.0208H6.25579V9.01767H2.24145V11.0208H0.24128V5.01835C0.24128 4.46463 0.346184 3.94581 0.555993 3.46189C0.765801 2.97332 1.05021 2.54756 1.40921 2.18462C1.77288 1.82168 2.19716 1.53552 2.68205 1.32613C3.17161 1.11674 3.6938 1.01205 4.24862 1.01205C4.80345 1.01205 5.32331 1.11674 5.8082 1.32613C6.29775 1.53552 6.72436 1.82168 7.08803 2.18462C7.4517 2.54756 7.73844 2.97332 7.94825 3.46189C8.15806 3.94581 8.26296 4.46463 8.26296 5.01835V11.0208Z" fill="white"/>
<path d="M15.0608 7.21693C15.0608 6.95636 15.0095 6.70509 14.9069 6.46313C14.809 6.21652 14.6738 6.00015 14.5013 5.81403C14.3288 5.62325 14.1259 5.47203 13.8928 5.36035C13.6644 5.24402 13.4196 5.18586 13.1585 5.18586C12.8974 5.18586 12.6503 5.23007 12.4172 5.31847C12.1887 5.40688 11.9882 5.53717 11.8157 5.70933C11.6479 5.8815 11.515 6.09554 11.4171 6.35146C11.3192 6.60272 11.2702 6.89122 11.2702 7.21693C11.2702 7.52869 11.3192 7.8102 11.4171 8.06147C11.515 8.30808 11.6479 8.51979 11.8157 8.69661C11.9882 8.87343 12.1887 9.0107 12.4172 9.10841C12.6503 9.20147 12.8974 9.248 13.1585 9.248C13.4196 9.248 13.6644 9.19217 13.8928 9.08049C14.1259 8.96416 14.3288 8.81294 14.5013 8.62682C14.6738 8.43604 14.809 8.21967 14.9069 7.97771C15.0095 7.7311 15.0608 7.4775 15.0608 7.21693ZM16.984 10.0786C16.984 10.6044 16.8838 11.0976 16.6833 11.5583C16.4828 12.0189 16.2077 12.4214 15.858 12.7657C15.513 13.1101 15.1074 13.3823 14.6411 13.5823C14.1796 13.7824 13.6853 13.8825 13.1585 13.8825L12.2004 13.8685V11.9631L13.1445 11.977C13.4429 11.977 13.697 11.9375 13.9068 11.8584C14.1166 11.7839 14.2938 11.6792 14.4383 11.5443C14.5829 11.414 14.6971 11.2628 14.781 11.0906C14.8696 10.9185 14.9395 10.737 14.9908 10.5462C14.9162 10.6672 14.809 10.7672 14.6691 10.8463C14.5292 10.9208 14.3731 10.9813 14.2005 11.0278C14.0327 11.079 13.8555 11.1139 13.669 11.1325C13.4872 11.1511 13.317 11.1604 13.1585 11.1604C12.6316 11.1604 12.1351 11.0697 11.6689 10.8882C11.2073 10.7067 10.8016 10.4485 10.452 10.1135C10.1069 9.7738 9.83419 9.35968 9.63371 8.8711C9.43323 8.38253 9.33298 7.83114 9.33298 7.21693C9.33298 6.65391 9.43323 6.13044 9.63371 5.64652C9.83419 5.1626 10.1069 4.74382 10.452 4.39018C10.8016 4.03655 11.2073 3.75969 11.6689 3.55961C12.1351 3.35953 12.6316 3.25948 13.1585 3.25948C13.4009 3.25948 13.6411 3.28973 13.8788 3.35022C14.1166 3.41071 14.3474 3.49447 14.5712 3.60149C14.795 3.70851 15.0071 3.83414 15.2076 3.97839C15.4128 4.12263 15.6039 4.27851 15.7811 4.44602L16.5224 3.55961H16.984V10.0786Z" fill="white"/>
<path d="M21.4249 9.19217C21.4995 9.21543 21.5741 9.23172 21.6487 9.24102C21.7233 9.24568 21.7979 9.248 21.8725 9.248C22.059 9.248 22.2385 9.22241 22.411 9.17123C22.5836 9.12004 22.7444 9.04792 22.8936 8.95486C23.0475 8.85714 23.1827 8.74082 23.2992 8.60588C23.4205 8.46628 23.5184 8.31273 23.593 8.14522L24.9917 9.54813C24.8145 9.79939 24.6094 10.0251 24.3763 10.2251C24.1478 10.4252 23.8984 10.5951 23.6279 10.7347C23.3622 10.8743 23.0801 10.9789 22.7817 11.0487C22.488 11.1232 22.1849 11.1604 21.8725 11.1604C21.3457 11.1604 20.8491 11.0627 20.3829 10.8673C19.9213 10.6718 19.5157 10.3996 19.166 10.0507C18.821 9.70168 18.5482 9.28755 18.3478 8.80829C18.1473 8.32437 18.047 7.79391 18.047 7.21693C18.047 6.62599 18.1473 6.08623 18.3478 5.59766C18.5482 5.10908 18.821 4.69263 19.166 4.34831C19.5157 4.00398 19.9213 3.73643 20.3829 3.54565C20.8491 3.35487 21.3457 3.25948 21.8725 3.25948C22.1849 3.25948 22.4903 3.29671 22.7887 3.37116C23.0871 3.44561 23.3692 3.55263 23.6349 3.69222C23.9054 3.83181 24.1571 4.00398 24.3902 4.20871C24.6234 4.4088 24.8285 4.63447 25.0057 4.88574L21.4249 9.19217ZM22.4041 5.26264C22.3155 5.23007 22.2269 5.20913 22.1383 5.19982C22.0544 5.19051 21.9658 5.18586 21.8725 5.18586C21.6114 5.18586 21.3643 5.23472 21.1312 5.33243C20.9028 5.42549 20.7023 5.56043 20.5298 5.73725C20.3619 5.91407 20.229 6.12811 20.1311 6.37938C20.0332 6.62599 19.9843 6.90517 19.9843 7.21693C19.9843 7.28673 19.9866 7.36583 19.9913 7.45424C20.0006 7.54265 20.0122 7.63338 20.0262 7.72644C20.0449 7.81485 20.0659 7.90093 20.0892 7.98469C20.1125 8.06845 20.1428 8.1429 20.1801 8.20804L22.4041 5.26264ZM19.6066 1.77282L21.4949 0L23.4321 1.77282L22.6418 2.77091L21.5229 1.75189L20.4668 2.74299L19.6066 1.77282Z" fill="white"/>
<path d="M27.8801 11.0208H25.9708V3.54565H26.4324L27.0618 4.27153C27.3695 3.99235 27.7169 3.7783 28.1039 3.6294C28.4955 3.47585 28.9035 3.39908 29.3277 3.39908C29.7847 3.39908 30.2159 3.48749 30.6216 3.6643C31.0272 3.83647 31.3815 4.0761 31.6846 4.3832C31.9876 4.68565 32.2254 5.04162 32.3979 5.45109C32.5751 5.8559 32.6637 6.28864 32.6637 6.7493V11.0208H30.7544V6.7493C30.7544 6.55387 30.7171 6.37007 30.6425 6.19791C30.5679 6.02109 30.4654 5.86754 30.3348 5.73725C30.2043 5.60696 30.0527 5.5046 29.8802 5.43015C29.7077 5.3557 29.5236 5.31847 29.3277 5.31847C29.1273 5.31847 28.9384 5.3557 28.7613 5.43015C28.5841 5.5046 28.4302 5.60696 28.2997 5.73725C28.1691 5.86754 28.0666 6.02109 27.992 6.19791C27.9174 6.37007 27.8801 6.55387 27.8801 6.7493V11.0208Z" fill="white"/>
<path d="M40.5735 5.03231L39.1748 6.43521C39.1048 6.23978 39.0092 6.06529 38.888 5.91174C38.7668 5.75354 38.6293 5.62092 38.4754 5.5139C38.3262 5.40688 38.163 5.32545 37.9858 5.26962C37.8087 5.21378 37.6268 5.18586 37.4403 5.18586C37.1792 5.18586 36.9321 5.23937 36.699 5.34639C36.4706 5.45341 36.2701 5.60464 36.0976 5.80007C35.9297 5.99084 35.7968 6.21885 35.6989 6.48407C35.601 6.7493 35.5521 7.04244 35.5521 7.3635C35.5521 7.62408 35.601 7.86836 35.6989 8.09636C35.7968 8.32437 35.9297 8.52445 36.0976 8.69661C36.2701 8.86878 36.4706 9.00372 36.699 9.10143C36.9321 9.19914 37.1792 9.248 37.4403 9.248C37.6268 9.248 37.8063 9.22241 37.9788 9.17123C38.1514 9.12004 38.3122 9.04792 38.4614 8.95486C38.6153 8.85714 38.7505 8.74082 38.867 8.60588C38.9883 8.46628 39.0862 8.31273 39.1608 8.14522L40.5595 9.54813C40.3823 9.79939 40.1772 10.0251 39.9441 10.2251C39.7156 10.4252 39.4662 10.5951 39.1957 10.7347C38.93 10.8743 38.6479 10.9789 38.3495 11.0487C38.0558 11.1232 37.7527 11.1604 37.4403 11.1604C36.9135 11.1604 36.4169 11.0627 35.9507 10.8673C35.4891 10.6672 35.0835 10.395 34.7338 10.0507C34.3888 9.70633 34.116 9.30384 33.9156 8.84318C33.7151 8.38253 33.6148 7.8893 33.6148 7.3635C33.6148 6.79117 33.7151 6.25607 33.9156 5.75819C34.116 5.26031 34.3888 4.82757 34.7338 4.45998C35.0835 4.08773 35.4891 3.79459 35.9507 3.58055C36.4169 3.36651 36.9135 3.25948 37.4403 3.25948C37.7527 3.25948 38.0581 3.29904 38.3565 3.37814C38.6596 3.45724 38.9463 3.57357 39.2167 3.72712C39.4918 3.87602 39.7436 4.05981 39.972 4.27851C40.2051 4.4972 40.4056 4.74847 40.5735 5.03231Z" fill="white"/>
<path d="M43.7626 1.51458C43.7626 1.6914 43.7276 1.85658 43.6577 2.01013C43.5924 2.16368 43.5015 2.29862 43.3849 2.41495C43.2684 2.52662 43.1308 2.61736 42.9723 2.68716C42.8184 2.7523 42.6529 2.78487 42.4757 2.78487C42.2986 2.78487 42.1307 2.7523 41.9722 2.68716C41.8183 2.61736 41.6831 2.52662 41.5666 2.41495C41.4547 2.29862 41.3638 2.16368 41.2938 2.01013C41.2285 1.85658 41.1959 1.6914 41.1959 1.51458C41.1959 1.34241 41.2285 1.17956 41.2938 1.026C41.3638 0.8678 41.4547 0.732861 41.5666 0.621187C41.6831 0.504859 41.8183 0.414124 41.9722 0.348981C42.1307 0.279185 42.2986 0.244287 42.4757 0.244287C42.6529 0.244287 42.8184 0.279185 42.9723 0.348981C43.1308 0.414124 43.2684 0.504859 43.3849 0.621187C43.5015 0.732861 43.5924 0.8678 43.6577 1.026C43.7276 1.17956 43.7626 1.34241 43.7626 1.51458ZM43.4339 11.0208H41.5106V3.54565H43.4339V11.0208Z" fill="white"/>
<path d="M52.1479 11.0208H51.6863L50.945 9.99482C50.7632 10.1577 50.5697 10.3112 50.3645 10.4555C50.1641 10.5951 49.9519 10.7184 49.7281 10.8254C49.5043 10.9278 49.2735 11.0092 49.0358 11.0697C48.8026 11.1302 48.5649 11.1604 48.3224 11.1604C47.7956 11.1604 47.299 11.072 46.8328 10.8952C46.3712 10.7184 45.9656 10.4625 45.6159 10.1274C45.2709 9.78776 44.9981 9.37364 44.7976 8.88506C44.5971 8.39649 44.4969 7.84044 44.4969 7.21693C44.4969 6.6353 44.5971 6.10252 44.7976 5.6186C44.9981 5.13002 45.2709 4.71125 45.6159 4.36227C45.9656 4.01328 46.3712 3.74341 46.8328 3.55263C47.299 3.3572 47.7956 3.25948 48.3224 3.25948C48.5649 3.25948 48.805 3.28973 49.0427 3.35022C49.2805 3.41071 49.5113 3.49447 49.7351 3.60149C49.9589 3.70851 50.1711 3.83414 50.3715 3.97839C50.5767 4.12263 50.7678 4.27851 50.945 4.44602L51.6863 3.55961H52.1479V11.0208ZM50.2247 7.21693C50.2247 6.95636 50.1734 6.70509 50.0708 6.46313C49.9729 6.21652 49.8377 6.00015 49.6652 5.81403C49.4927 5.62325 49.2899 5.47203 49.0567 5.36035C48.8283 5.24402 48.5835 5.18586 48.3224 5.18586C48.0613 5.18586 47.8142 5.23007 47.5811 5.31847C47.3526 5.40688 47.1521 5.53717 46.9796 5.70933C46.8118 5.8815 46.6789 6.09554 46.581 6.35146C46.4831 6.60272 46.4341 6.89122 46.4341 7.21693C46.4341 7.54265 46.4831 7.83347 46.581 8.08938C46.6789 8.34065 46.8118 8.55237 46.9796 8.72453C47.1521 8.89669 47.3526 9.02698 47.5811 9.11539C47.8142 9.2038 48.0613 9.248 48.3224 9.248C48.5835 9.248 48.8283 9.19217 49.0567 9.08049C49.2899 8.96416 49.4927 8.81294 49.6652 8.62682C49.8377 8.43604 49.9729 8.21967 50.0708 7.97771C50.1734 7.7311 50.2247 7.4775 50.2247 7.21693Z" fill="white"/>
<path d="M12.8298 29.1364C12.1304 29.7367 11.3471 30.1973 10.4799 30.5184C9.61273 30.8395 8.71405 31 7.7839 31C7.07055 31 6.38168 30.9058 5.71728 30.7173C5.05988 30.5359 4.44095 30.2776 3.86048 29.9426C3.287 29.6006 2.76248 29.1923 2.28691 28.7177C1.81135 28.2431 1.40222 27.7196 1.05953 27.1472C0.723839 26.5679 0.461579 25.9502 0.272751 25.2942C0.0909171 24.6311 0 23.9436 0 23.2317C0 22.5198 0.0909171 21.8323 0.272751 21.1692C0.461579 20.5061 0.723839 19.8884 1.05953 19.3161C1.40222 18.7368 1.81135 18.2098 2.28691 17.7352C2.76248 17.2606 3.287 16.8558 3.86048 16.5208C4.44095 16.1788 5.05988 15.917 5.71728 15.7356C6.38168 15.5471 7.07055 15.4529 7.7839 15.4529C8.71405 15.4529 9.61273 15.6134 10.4799 15.9345C11.3471 16.2486 12.1304 16.7092 12.8298 17.3164L11.2352 19.9338C10.7946 19.4592 10.2736 19.0963 9.67217 18.845C9.07072 18.5867 8.4413 18.4576 7.7839 18.4576C7.1195 18.4576 6.49707 18.5832 5.9166 18.8345C5.33613 19.0858 4.82909 19.4278 4.39549 19.8605C3.96188 20.2863 3.6192 20.7923 3.36743 21.3786C3.11566 21.9579 2.98977 22.5756 2.98977 23.2317C2.98977 23.8878 3.11566 24.5055 3.36743 25.0848C3.6192 25.6571 3.96188 26.1596 4.39549 26.5924C4.82909 27.0251 5.33613 27.3671 5.9166 27.6184C6.49707 27.8696 7.1195 27.9953 7.7839 27.9953C8.4413 27.9953 9.07072 27.8696 9.67217 27.6184C10.2736 27.3601 10.7946 26.9937 11.2352 26.5191L12.8298 29.1364Z" fill="white"/>
<path d="M17.1414 30.6754H14.2775V19.4627H14.9698L15.914 20.7923C16.3756 20.3735 16.9001 20.0525 17.4875 19.8291C18.075 19.5988 18.6835 19.4836 19.3129 19.4836H21.8411V22.3313H19.3129C19.0122 22.3313 18.7289 22.3871 18.4632 22.4988C18.1974 22.6105 17.9666 22.764 17.7708 22.9595C17.575 23.1549 17.4211 23.3852 17.3092 23.6505C17.1973 23.9157 17.1414 24.1984 17.1414 24.4985V30.6754Z" fill="white"/>
<path d="M26.5513 16.4161C26.5513 16.6813 26.4988 16.9291 26.3939 17.1594C26.296 17.3897 26.1596 17.5921 25.9848 17.7666C25.8099 17.9341 25.6036 18.0702 25.3659 18.1749C25.1351 18.2727 24.8868 18.3215 24.621 18.3215C24.3553 18.3215 24.1035 18.2727 23.8657 18.1749C23.6349 18.0702 23.4321 17.9341 23.2573 17.7666C23.0894 17.5921 22.9531 17.3897 22.8482 17.1594C22.7502 16.9291 22.7013 16.6813 22.7013 16.4161C22.7013 16.1578 22.7502 15.9135 22.8482 15.6832C22.9531 15.4459 23.0894 15.2435 23.2573 15.076C23.4321 14.9015 23.6349 14.7654 23.8657 14.6677C24.1035 14.563 24.3553 14.5106 24.621 14.5106C24.8868 14.5106 25.1351 14.563 25.3659 14.6677C25.6036 14.7654 25.8099 14.9015 25.9848 15.076C26.1596 15.2435 26.296 15.4459 26.3939 15.6832C26.4988 15.9135 26.5513 16.1578 26.5513 16.4161ZM26.0582 30.6754H23.1734V19.4627H26.0582V30.6754Z" fill="white"/>
<path d="M39.1293 30.6754H38.4369L37.3249 29.1364C37.0522 29.3807 36.762 29.6111 36.4542 29.8274C36.1535 30.0368 35.8353 30.2218 35.4996 30.3823C35.1639 30.5359 34.8177 30.658 34.4611 30.7487C34.1114 30.8395 33.7547 30.8848 33.391 30.8848C32.6008 30.8848 31.8559 30.7522 31.1566 30.487C30.4642 30.2218 29.8558 29.8379 29.3312 29.3354C28.8137 28.8258 28.4046 28.2047 28.1039 27.4718C27.8031 26.7389 27.6528 25.9049 27.6528 24.9696C27.6528 24.0972 27.8031 23.298 28.1039 22.5721C28.4046 21.8392 28.8137 21.2111 29.3312 20.6876C29.8558 20.1641 30.4642 19.7593 31.1566 19.4732C31.8559 19.18 32.6008 19.0334 33.391 19.0334C33.7547 19.0334 34.1149 19.0788 34.4715 19.1695C34.8282 19.2603 35.1744 19.3859 35.5101 19.5464C35.8458 19.707 36.164 19.8954 36.4647 20.1118C36.7724 20.3282 37.0592 20.562 37.3249 20.8132L38.4369 19.4836H39.1293V30.6754ZM36.2444 24.9696C36.2444 24.5787 36.1675 24.2018 36.0136 23.8389C35.8668 23.469 35.664 23.1444 35.4052 22.8652C35.1464 22.5791 34.8422 22.3522 34.4925 22.1847C34.1498 22.0102 33.7827 21.923 33.391 21.923C32.9994 21.923 32.6287 21.9893 32.279 22.1219C31.9364 22.2545 31.6356 22.45 31.3769 22.7082C31.1251 22.9665 30.9258 23.2875 30.7789 23.6714C30.632 24.0483 30.5586 24.481 30.5586 24.9696C30.5586 25.4582 30.632 25.8944 30.7789 26.2783C30.9258 26.6552 31.1251 26.9728 31.3769 27.231C31.6356 27.4893 31.9364 27.6847 32.279 27.8173C32.6287 27.9499 32.9994 28.0162 33.391 28.0162C33.7827 28.0162 34.1498 27.9325 34.4925 27.7649C34.8422 27.5905 35.1464 27.3636 35.4052 27.0844C35.664 26.7983 35.8668 26.4737 36.0136 26.1108C36.1675 25.7409 36.2444 25.3605 36.2444 24.9696Z" fill="white"/>
<path d="M46.9552 30.6754C46.2628 30.6754 45.6124 30.5463 45.0039 30.2881C44.3955 30.0229 43.8605 29.6634 43.3989 29.2097C42.9443 28.7491 42.5841 28.2151 42.3184 27.6079C42.0596 27.0007 41.9302 26.3516 41.9302 25.6606V22.3313H40.535V19.4836H41.9302V15.0027H44.7836V19.4836H49.1267V22.3313H44.7836V25.6606C44.7836 25.9607 44.8396 26.2434 44.9515 26.5086C45.0634 26.7669 45.2172 26.9937 45.4131 27.1891C45.6089 27.3846 45.8397 27.5416 46.1054 27.6603C46.3712 27.7719 46.6544 27.8278 46.9552 27.8278H49.1267V30.6754H46.9552Z" fill="white"/>
<path d="M54.1201 16.4161C54.1201 16.6813 54.0677 16.9291 53.9628 17.1594C53.8649 17.3897 53.7285 17.5921 53.5536 17.7666C53.3788 17.9341 53.1725 18.0702 52.9347 18.1749C52.7039 18.2727 52.4556 18.3215 52.1899 18.3215C51.9241 18.3215 51.6723 18.2727 51.4346 18.1749C51.2038 18.0702 51.001 17.9341 50.8261 17.7666C50.6583 17.5921 50.5219 17.3897 50.417 17.1594C50.3191 16.9291 50.2701 16.6813 50.2701 16.4161C50.2701 16.1578 50.3191 15.9135 50.417 15.6832C50.5219 15.4459 50.6583 15.2435 50.8261 15.076C51.001 14.9015 51.2038 14.7654 51.4346 14.6677C51.6723 14.563 51.9241 14.5106 52.1899 14.5106C52.4556 14.5106 52.7039 14.563 52.9347 14.6677C53.1725 14.7654 53.3788 14.9015 53.5536 15.076C53.7285 15.2435 53.8649 15.4459 53.9628 15.6832C54.0677 15.9135 54.1201 16.1578 54.1201 16.4161ZM53.6271 30.6754H50.7422V19.4627H53.6271V30.6754Z" fill="white"/>
<path d="M59.0087 30.6754L54.7286 19.4627H57.9911L60.4458 26.4563L62.8901 19.4627H66.1631L61.883 30.6754H59.0087Z" fill="white"/>
<path d="M77.797 30.6754H77.1046L75.9927 29.1364C75.7199 29.3807 75.4297 29.6111 75.122 29.8274C74.8212 30.0368 74.503 30.2218 74.1673 30.3823C73.8316 30.5359 73.4854 30.658 73.1288 30.7487C72.7791 30.8395 72.4224 30.8848 72.0587 30.8848C71.2685 30.8848 70.5236 30.7522 69.8243 30.487C69.1319 30.2218 68.5235 29.8379 67.9989 29.3354C67.4814 28.8258 67.0723 28.2047 66.7716 27.4718C66.4708 26.7389 66.3205 25.9049 66.3205 24.9696C66.3205 24.0972 66.4708 23.298 66.7716 22.5721C67.0723 21.8392 67.4814 21.2111 67.9989 20.6876C68.5235 20.1641 69.1319 19.7593 69.8243 19.4732C70.5236 19.18 71.2685 19.0334 72.0587 19.0334C72.4224 19.0334 72.7826 19.0788 73.1393 19.1695C73.4959 19.2603 73.8421 19.3859 74.1778 19.5464C74.5135 19.707 74.8317 19.8954 75.1324 20.1118C75.4402 20.3282 75.7269 20.562 75.9927 20.8132L77.1046 19.4836H77.797V30.6754ZM74.9121 24.9696C74.9121 24.5787 74.8352 24.2018 74.6814 23.8389C74.5345 23.469 74.3317 23.1444 74.0729 22.8652C73.8141 22.5791 73.5099 22.3522 73.1602 22.1847C72.8176 22.0102 72.4504 21.923 72.0587 21.923C71.6671 21.923 71.2964 21.9893 70.9468 22.1219C70.6041 22.2545 70.3033 22.45 70.0446 22.7082C69.7928 22.9665 69.5935 23.2875 69.4466 23.6714C69.2998 24.0483 69.2263 24.481 69.2263 24.9696C69.2263 25.4582 69.2998 25.8944 69.4466 26.2783C69.5935 26.6552 69.7928 26.9728 70.0446 27.231C70.3033 27.4893 70.6041 27.6847 70.9468 27.8173C71.2964 27.9499 71.6671 28.0162 72.0587 28.0162C72.4504 28.0162 72.8176 27.9325 73.1602 27.7649C73.5099 27.5905 73.8141 27.3636 74.0729 27.0844C74.3317 26.7983 74.5345 26.4737 74.6814 26.1108C74.8352 25.7409 74.9121 25.3605 74.9121 24.9696Z" fill="white"/>
<path d="M95.2216 26.383C95.2216 27.0042 95.1027 27.5905 94.8649 28.1418C94.6341 28.6863 94.3124 29.1644 93.8998 29.5762C93.4942 29.981 93.0151 30.302 92.4626 30.5393C91.9171 30.7697 91.3332 30.8848 90.7107 30.8848C90.1512 30.8848 89.6127 30.7871 89.0952 30.5917C88.5847 30.3963 88.1231 30.1101 87.7105 29.7332C87.2978 30.1101 86.8328 30.3963 86.3152 30.5917C85.7977 30.7871 85.2592 30.8848 84.6997 30.8848C84.0773 30.8848 83.4898 30.7697 82.9373 30.5393C82.3918 30.302 81.9128 29.981 81.5001 29.5762C81.0945 29.1644 80.7728 28.6863 80.535 28.1418C80.3042 27.5905 80.1888 27.0042 80.1888 26.383V15.6623H83.1996V26.383C83.1996 26.5924 83.238 26.7913 83.315 26.9797C83.3919 27.1612 83.4968 27.3217 83.6297 27.4613C83.7696 27.5939 83.9304 27.6986 84.1122 27.7754C84.2941 27.8522 84.4899 27.8906 84.6997 27.8906C84.9095 27.8906 85.1053 27.8522 85.2872 27.7754C85.469 27.6986 85.6264 27.5939 85.7592 27.4613C85.8991 27.3217 86.0075 27.1612 86.0844 26.9797C86.1614 26.7913 86.1998 26.5924 86.1998 26.383V15.6623H89.2106V26.383C89.2106 26.5924 89.2491 26.7913 89.326 26.9797C89.4029 27.1612 89.5078 27.3217 89.6407 27.4613C89.7806 27.5939 89.9414 27.6986 90.1233 27.7754C90.3051 27.8522 90.5009 27.8906 90.7107 27.8906C90.9205 27.8906 91.1164 27.8522 91.2982 27.7754C91.48 27.6986 91.6374 27.5939 91.7703 27.4613C91.9101 27.3217 92.0185 27.1612 92.0955 26.9797C92.1794 26.7913 92.2214 26.5924 92.2214 26.383V15.6623H95.2216V26.383Z" fill="white"/>
<path d="M101.935 27.9325C102.047 27.9674 102.159 27.9918 102.271 28.0057C102.383 28.0127 102.495 28.0162 102.607 28.0162C102.887 28.0162 103.156 27.9778 103.415 27.901C103.673 27.8243 103.915 27.7161 104.138 27.5765C104.369 27.4299 104.572 27.2554 104.747 27.053C104.929 26.8436 105.076 26.6133 105.188 26.362L107.286 28.4664C107.02 28.8433 106.712 29.1818 106.362 29.4819C106.02 29.7821 105.646 30.0368 105.24 30.2462C104.841 30.4556 104.418 30.6126 103.971 30.7173C103.53 30.829 103.075 30.8848 102.607 30.8848C101.817 30.8848 101.072 30.7383 100.372 30.4451C99.68 30.152 99.0716 29.7437 98.5471 29.2202C98.0295 28.6967 97.6204 28.0755 97.3197 27.3566C97.019 26.6308 96.8686 25.8351 96.8686 24.9696C96.8686 24.0832 97.019 23.2736 97.3197 22.5407C97.6204 21.8078 98.0295 21.1832 98.5471 20.6667C99.0716 20.1502 99.68 19.7488 100.372 19.4627C101.072 19.1765 101.817 19.0334 102.607 19.0334C103.075 19.0334 103.534 19.0893 103.981 19.2009C104.429 19.3126 104.852 19.4732 105.25 19.6825C105.656 19.8919 106.034 20.1502 106.383 20.4573C106.733 20.7574 107.041 21.0959 107.307 21.4728L101.935 27.9325ZM103.404 22.0382C103.271 21.9893 103.138 21.9579 103.006 21.9439C102.88 21.93 102.747 21.923 102.607 21.923C102.215 21.923 101.845 21.9963 101.495 22.1429C101.152 22.2825 100.851 22.4849 100.593 22.7501C100.341 23.0153 100.142 23.3364 99.9948 23.7133C99.8479 24.0832 99.7745 24.502 99.7745 24.9696C99.7745 25.0743 99.7779 25.193 99.7849 25.3256C99.7989 25.4582 99.8164 25.5943 99.8374 25.7339C99.8654 25.8665 99.8968 25.9956 99.9318 26.1212C99.9668 26.2469 100.012 26.3586 100.068 26.4563L103.404 22.0382Z" fill="white"/>
<path d="M120 24.9696C120 25.849 119.85 26.6517 119.549 27.3776C119.248 28.1035 118.839 28.7281 118.322 29.2516C117.804 29.7681 117.196 30.1694 116.496 30.4556C115.804 30.7418 115.059 30.8848 114.262 30.8848C113.471 30.8848 112.727 30.7383 112.027 30.4451C111.335 30.152 110.726 29.7437 110.202 29.2202C109.684 28.6967 109.275 28.0755 108.975 27.3566C108.674 26.6308 108.523 25.8351 108.523 24.9696V15.0027H111.398V20.2374C111.552 20.042 111.737 19.8675 111.954 19.7139C112.178 19.5604 112.415 19.4348 112.667 19.337C112.926 19.2393 113.192 19.166 113.464 19.1172C113.737 19.0614 114.003 19.0334 114.262 19.0334C115.059 19.0334 115.804 19.1835 116.496 19.4836C117.196 19.7768 117.804 20.1886 118.322 20.719C118.839 21.2495 119.248 21.8776 119.549 22.6035C119.85 23.3224 120 24.1111 120 24.9696ZM117.115 24.9696C117.115 24.5369 117.038 24.1355 116.884 23.7656C116.737 23.3887 116.535 23.0642 116.276 22.792C116.017 22.5198 115.713 22.3069 115.363 22.1533C115.021 21.9998 114.653 21.923 114.262 21.923C113.87 21.923 113.499 22.0102 113.15 22.1847C112.807 22.3522 112.506 22.5791 112.248 22.8652C111.989 23.1444 111.786 23.469 111.639 23.8389C111.492 24.2018 111.419 24.5787 111.419 24.9696C111.419 25.4023 111.492 25.8037 111.639 26.1736C111.786 26.5435 111.989 26.8646 112.248 27.1368C112.506 27.409 112.807 27.6254 113.15 27.7859C113.499 27.9394 113.87 28.0162 114.262 28.0162C114.653 28.0162 115.021 27.9394 115.363 27.7859C115.713 27.6254 116.017 27.409 116.276 27.1368C116.535 26.8646 116.737 26.5435 116.884 26.1736C117.038 25.8037 117.115 25.4023 117.115 24.9696Z" fill="white"/>
</svg>
