<svg width="369" height="84" viewBox="0 0 369 84" fill="none" xmlns="http://www.w3.org/2000/svg">
<path d="M37.3857 77.8436C35.375 79.5476 33.123 80.8552 30.6298 81.7666C28.1366 82.678 25.5529 83.1337 22.8787 83.1337C20.8278 83.1337 18.8473 82.8663 16.9372 82.3313C15.0472 81.8162 13.2677 81.0831 11.5989 80.132C9.95013 79.1612 8.44213 78.0021 7.07488 76.6548C5.70762 75.3076 4.53138 73.8216 3.54616 72.1969C2.58104 70.5524 1.82704 68.7989 1.28416 66.9365C0.761387 65.0543 0.5 63.1027 0.5 61.0817C0.5 59.0608 0.761387 57.1092 1.28416 55.2269C1.82704 53.3447 2.58104 51.5912 3.54616 49.9666C4.53138 48.3221 5.70762 46.8262 7.07488 45.4789C8.44213 44.1316 9.95013 42.9824 11.5989 42.0314C13.2677 41.0606 15.0472 40.3176 16.9372 39.8024C18.8473 39.2675 20.8278 39 22.8787 39C25.5529 39 28.1366 39.4557 30.6298 40.3671C33.123 41.2587 35.375 42.5664 37.3857 44.2901L32.8013 51.72C31.5346 50.3727 30.0367 49.3424 28.3075 48.6292C26.5783 47.8961 24.7687 47.5295 22.8787 47.5295C20.9686 47.5295 19.1791 47.8862 17.5102 48.5995C15.8414 49.3127 14.3836 50.2836 13.137 51.512C11.8904 52.7206 10.9052 54.157 10.1814 55.8213C9.45751 57.4658 9.09559 59.2193 9.09559 61.0817C9.09559 62.9442 9.45751 64.6976 10.1814 66.3421C10.9052 67.9668 11.8904 69.3933 13.137 70.6217C14.3836 71.8502 15.8414 72.821 17.5102 73.5343C19.1791 74.2476 20.9686 74.6042 22.8787 74.6042C24.7687 74.6042 26.5783 74.2476 28.3075 73.5343C30.0367 72.8012 31.5346 71.761 32.8013 70.4137L37.3857 77.8436Z" fill="url(#paint0_linear_79_199)"/>
<path d="M49.7814 82.2124H41.5477V50.3826H43.5383L46.2527 54.157C47.5797 52.9682 49.0877 52.0568 50.7767 51.4228C52.4656 50.769 54.2149 50.4421 56.0245 50.4421H63.2931V58.5258H56.0245C55.1599 58.5258 54.3456 58.6843 53.5816 59.0013C52.8175 59.3184 52.154 59.7542 51.591 60.309C51.028 60.8638 50.5857 61.5176 50.264 62.2705C49.9423 63.0234 49.7814 63.8258 49.7814 64.6778V82.2124Z" fill="url(#paint1_linear_79_199)"/>
<path fill-rule="evenodd" clip-rule="evenodd" d="M119.247 48C120.313 48 121.37 48.1311 122.415 48.3936C123.456 48.6551 124.467 49.018 125.446 49.4805C126.424 49.9419 127.351 50.4835 128.227 51.1055C129.047 51.6749 129.815 52.2891 130.533 52.9434L133.563 49.3662L133.639 49.2783H135.995V81.5479H133.628L133.553 81.4463L130.515 77.2949C129.784 77.9281 129.012 78.5307 128.197 79.0967C127.321 79.6988 126.393 80.2311 125.416 80.6924L125.412 80.6943C124.434 81.1362 123.424 81.4879 122.385 81.749L122.384 81.748C121.359 82.0105 120.313 82.1426 119.247 82.1426C117.091 82.1425 115.048 81.807 113.12 81.1357L112.735 80.9971C110.715 80.2328 108.936 79.1256 107.403 77.6758L107.121 77.3936C105.739 75.9761 104.638 74.2769 103.816 72.2998C102.937 70.1841 102.5 67.7827 102.5 65.1006C102.5 62.5946 102.938 60.2924 103.816 58.1982C104.693 56.0903 105.887 54.279 107.399 52.7686L107.4 52.7676C108.932 51.2586 110.709 50.091 112.729 49.2666C114.77 48.4217 116.944 48.0001 119.247 48ZM119.248 56.2031C118.094 56.2031 116.998 56.3958 115.963 56.7832L115.962 56.7842C114.945 57.1728 114.05 57.7464 113.281 58.5039L113.279 58.5068C112.529 59.267 111.938 60.2076 111.505 61.3242C111.069 62.4287 110.854 63.6896 110.854 65.1016C110.855 66.5136 111.07 67.784 111.505 68.9072C111.938 70.0046 112.529 70.9367 113.279 71.6963L113.281 71.6992C114.05 72.4566 114.945 73.0304 115.962 73.4189L115.963 73.4199C116.997 73.8072 118.094 74 119.248 74C120.41 73.9999 121.504 73.754 122.523 73.2617L122.525 73.2607C123.556 72.7526 124.456 72.0912 125.221 71.2764L125.223 71.2734C125.986 70.4398 126.583 69.4937 127.017 68.4375L127.019 68.4385C127.473 67.3586 127.701 66.2452 127.701 65.1016C127.701 63.9579 127.472 62.8539 127.017 61.793C126.638 60.8524 126.133 60.0099 125.5 59.2686L125.221 58.957C124.455 58.1217 123.554 57.4585 122.521 56.9697C121.502 56.4587 120.409 56.2033 119.248 56.2031Z" fill="url(#paint2_linear_79_199)"/>
<path d="M158.958 83.4904C156.967 83.4904 155.097 83.1238 153.348 82.3908C151.599 81.6379 150.061 80.6175 148.734 79.3296C147.427 78.022 146.391 76.5063 145.627 74.7825C144.883 73.0588 144.511 71.2161 144.511 69.2547V59.8038H140.5V51.72H144.511V39H152.715V51.72H165.201V59.8038H152.715V69.2547C152.715 70.1066 152.876 70.909 153.197 71.6619C153.519 72.395 153.961 73.0389 154.524 73.5937C155.087 74.1485 155.751 74.5943 156.515 74.9311C157.279 75.2481 158.093 75.4066 158.958 75.4066H165.201V83.4904H158.958Z" fill="url(#paint3_linear_79_199)"/>
<path d="M179.569 45.409C179.569 46.1619 179.418 46.8652 179.116 47.5191C178.835 48.1729 178.443 48.7475 177.94 49.2428C177.437 49.7183 176.844 50.1047 176.161 50.4019C175.497 50.6793 174.783 50.818 174.019 50.818C173.255 50.818 172.531 50.6793 171.848 50.4019C171.184 50.1047 170.601 49.7183 170.098 49.2428C169.616 48.7475 169.224 48.1729 168.922 47.5191C168.641 46.8652 168.5 46.1619 168.5 45.409C168.5 44.6759 168.641 43.9824 168.922 43.3286C169.224 42.655 169.616 42.0804 170.098 41.6049C170.601 41.1095 171.184 40.7232 171.848 40.4458C172.531 40.1486 173.255 40 174.019 40C174.783 40 175.497 40.1486 176.161 40.4458C176.844 40.7232 177.437 41.1095 177.94 41.6049C178.443 42.0804 178.835 42.655 179.116 43.3286C179.418 43.9824 179.569 44.6759 179.569 45.409Z" fill="url(#paint4_linear_79_199)"/>
<path d="M178.14 83.4904H169.846V51.6606H178.14V83.4904Z" fill="url(#paint5_linear_79_199)"/>
<path d="M193.612 83.4904L181.306 51.6606H190.686L197.744 71.5133L204.771 51.6606H214.181L201.875 83.4904H193.612Z" fill="url(#paint6_linear_79_199)"/>
<path d="M296.719 69.5557C296.719 71.3191 296.377 72.9834 295.694 74.5486C295.03 76.0941 294.105 77.4513 292.919 78.6202C291.753 79.7694 290.376 80.6808 288.787 81.3545C287.219 82.0083 285.54 82.3352 283.75 82.3352C282.142 82.3352 280.594 82.0578 279.106 81.5031C277.638 80.9483 276.311 80.1359 275.125 79.066C273.938 80.1359 272.601 80.9483 271.113 81.5031C269.626 82.0578 268.077 82.3352 266.469 82.3352C264.679 82.3352 262.99 82.0083 261.402 81.3545C259.834 80.6808 258.456 79.7694 257.27 78.6202C256.104 77.4513 255.179 76.0941 254.495 74.5486C253.832 72.9834 253.5 71.3191 253.5 69.5557V39.1228H262.156V69.5557C262.156 70.1501 262.266 70.7148 262.488 71.2498C262.709 71.7649 263.01 72.2206 263.392 72.6169C263.795 72.9933 264.257 73.2905 264.78 73.5085C265.303 73.7264 265.866 73.8354 266.469 73.8354C267.072 73.8354 267.635 73.7264 268.158 73.5085C268.681 73.2905 269.133 72.9933 269.515 72.6169C269.917 72.2206 270.229 71.7649 270.45 71.2498C270.671 70.7148 270.782 70.1501 270.782 69.5557V39.1228H279.438V69.5557C279.438 70.1501 279.548 70.7148 279.769 71.2498C279.99 71.7649 280.292 72.2206 280.674 72.6169C281.076 72.9933 281.539 73.2905 282.061 73.5085C282.584 73.7264 283.147 73.8354 283.75 73.8354C284.354 73.8354 284.917 73.7264 285.439 73.5085C285.962 73.2905 286.415 72.9933 286.797 72.6169C287.199 72.2206 287.51 71.7649 287.732 71.2498C287.973 70.7148 288.094 70.1501 288.094 69.5557V39.1228H296.719V69.5557Z" fill="url(#paint7_linear_79_199)"/>
<path fill-rule="evenodd" clip-rule="evenodd" d="M317.951 48.4424C319.318 48.4424 320.656 48.603 321.962 48.9248C323.267 49.2462 324.502 49.7093 325.665 50.3125L326.106 50.5449C327.124 51.1039 328.08 51.7708 328.973 52.5449C329.993 53.4099 330.891 54.3854 331.667 55.4717L331.779 55.6299L316.466 73.8145C316.649 73.8571 316.831 73.8905 317.013 73.9131C317.326 73.9321 317.639 73.9414 317.951 73.9414C318.733 73.9414 319.484 73.836 320.204 73.625C320.927 73.4132 321.6 73.1147 322.224 72.7305C322.866 72.3272 323.43 71.8483 323.916 71.293C324.423 70.717 324.832 70.0839 325.144 69.3936L325.291 69.0654L331.579 75.292L331.731 75.4424L331.607 75.6152C330.831 76.7014 329.932 77.6761 328.911 78.541L328.912 78.542C327.912 79.407 326.82 80.1417 325.636 80.7451L325.635 80.7441C324.471 81.3473 323.237 81.7999 321.933 82.1016C320.646 82.4236 319.318 82.585 317.951 82.585C315.648 82.5849 313.474 82.1626 311.432 81.3174C309.413 80.4732 307.636 79.2966 306.105 77.7881L306.104 77.7861C304.592 76.2762 303.397 74.4857 302.521 72.417C301.642 70.323 301.204 68.0296 301.204 65.543C301.204 62.9979 301.642 60.6667 302.521 58.5527C303.397 56.444 304.591 54.6417 306.105 53.1504L306.106 53.1494C307.637 51.6605 309.413 50.5039 311.433 49.6797L311.434 49.6787C313.475 48.8538 315.649 48.4425 317.951 48.4424ZM317.952 56.6455C316.795 56.6455 315.697 56.8595 314.661 57.2881L314.286 57.4492C313.424 57.8474 312.656 58.3873 311.984 59.0674L311.981 59.0703C311.232 59.8489 310.642 60.7888 310.209 61.8857C309.774 62.9697 309.559 64.1907 309.559 65.5439C309.559 65.8464 309.569 66.1879 309.589 66.5674L309.59 66.5811C309.631 66.9612 309.681 67.3515 309.742 67.751L309.743 67.7588L309.745 67.7656C309.827 68.147 309.919 68.519 310.021 68.8809C310.126 69.2544 310.264 69.5917 310.437 69.8896L310.624 70.2129L310.852 69.916L320.65 57.1035L320.329 56.9873C319.929 56.8421 319.527 56.7489 319.124 56.707L319.125 56.7061C318.753 56.6654 318.362 56.6455 317.952 56.6455Z" fill="url(#paint8_linear_79_199)"/>
<path fill-rule="evenodd" clip-rule="evenodd" d="M235.247 49C236.614 49 237.951 49.1606 239.258 49.4824C240.563 49.8039 241.797 50.2669 242.961 50.8701L243.401 51.1025C244.42 51.6615 245.376 52.3284 246.269 53.1025C247.289 53.9676 248.187 54.943 248.963 56.0293L249.075 56.1875L233.762 74.3721C233.944 74.4148 234.127 74.4481 234.309 74.4707C234.621 74.4897 234.934 74.499 235.247 74.499C236.028 74.499 236.78 74.3936 237.5 74.1826C238.223 73.9708 238.896 73.6723 239.52 73.2881C240.162 72.8848 240.726 72.4059 241.212 71.8506C241.718 71.2746 242.128 70.6415 242.439 69.9512L242.587 69.623L248.875 75.8496L249.026 76L248.902 76.1729C248.127 77.2591 247.227 78.2337 246.207 79.0986L246.208 79.0996C245.208 79.9646 244.115 80.6993 242.932 81.3027L242.931 81.3018C241.767 81.905 240.533 82.3575 239.229 82.6592C237.941 82.9812 236.614 83.1426 235.247 83.1426C232.944 83.1425 230.77 82.7202 228.728 81.875C226.708 81.0308 224.931 79.8542 223.4 78.3457L223.399 78.3438C221.888 76.8338 220.693 75.0433 219.816 72.9746C218.938 70.8806 218.5 68.5872 218.5 66.1006C218.5 63.5555 218.938 61.2243 219.816 59.1104C220.693 57.0016 221.887 55.1994 223.4 53.708L223.401 53.707C224.933 52.2181 226.709 51.0615 228.729 50.2373L228.729 50.2363C230.771 49.4115 232.945 49.0001 235.247 49ZM235.248 57.2031C234.091 57.2031 232.993 57.4171 231.957 57.8457L231.582 58.0068C230.719 58.405 229.951 58.9449 229.279 59.625L229.276 59.6279C228.528 60.4065 227.938 61.3465 227.505 62.4434C227.069 63.5273 226.854 64.7484 226.854 66.1016C226.855 66.404 226.865 66.7455 226.885 67.125L226.886 67.1387C226.926 67.5189 226.977 67.9091 227.038 68.3086L227.039 68.3164L227.041 68.3232C227.122 68.7046 227.214 69.0766 227.316 69.4385C227.422 69.812 227.56 70.1493 227.732 70.4473L227.92 70.7705L228.147 70.4736L237.945 57.6611L237.625 57.5449C237.225 57.3998 236.823 57.3065 236.42 57.2646L236.421 57.2637C236.049 57.223 235.658 57.2031 235.248 57.2031Z" fill="url(#paint9_linear_79_199)"/>
<path fill-rule="evenodd" clip-rule="evenodd" d="M84.2471 49C85.6138 49 86.9513 49.1606 88.2578 49.4824C89.5626 49.8039 90.7974 50.2669 91.9609 50.8701L92.4014 51.1025C93.4199 51.6615 94.3757 52.3284 95.2686 53.1025C96.2891 53.9676 97.1871 54.943 97.9629 56.0293L98.0752 56.1875L82.7617 74.3721C82.9443 74.4148 83.1265 74.4481 83.3086 74.4707C83.6214 74.4897 83.9343 74.499 84.2471 74.499C85.0284 74.499 85.7798 74.3936 86.5 74.1826C87.2229 73.9708 87.8957 73.6723 88.5195 73.2881C89.1622 72.8848 89.7261 72.4059 90.2119 71.8506C90.7185 71.2746 91.1281 70.6415 91.4395 69.9512L91.5869 69.623L97.875 75.8496L98.0264 76L97.9023 76.1729C97.1266 77.2591 96.2274 78.2337 95.207 79.0986L95.208 79.0996C94.2076 79.9646 93.1155 80.6993 91.9316 81.3027L91.9307 81.3018C90.7673 81.905 89.5332 82.3575 88.2285 82.6592C86.9415 82.9812 85.6139 83.1426 84.2471 83.1426C81.9439 83.1425 79.7697 82.7202 77.7275 81.875C75.7085 81.0308 73.9314 79.8542 72.4004 78.3457L72.3994 78.3438C70.8876 76.8338 69.6928 75.0433 68.8164 72.9746C67.9378 70.8806 67.5 68.5872 67.5 66.1006C67.5001 63.5555 67.9379 61.2243 68.8164 59.1104C69.6928 57.0016 70.8869 55.1994 72.4004 53.708L72.4014 53.707C73.9327 52.2181 75.7092 51.0615 77.7285 50.2373L77.7295 50.2363C79.7712 49.4115 81.9447 49.0001 84.2471 49ZM84.248 57.2031C83.0911 57.2031 81.9932 57.4171 80.957 57.8457L80.582 58.0068C79.7194 58.405 78.9513 58.9449 78.2793 59.625L78.2764 59.6279C77.528 60.4065 76.9378 61.3465 76.5049 62.4434C76.0694 63.5273 75.8545 64.7484 75.8545 66.1016C75.8545 66.404 75.8645 66.7455 75.8848 67.125L75.8857 67.1387C75.9264 67.5189 75.9773 67.9091 76.0381 68.3086L76.0391 68.3164L76.041 68.3232C76.1225 68.7046 76.2144 69.0766 76.3164 69.4385C76.4217 69.812 76.5597 70.1493 76.7324 70.4473L76.9199 70.7705L77.1475 70.4736L86.9453 57.6611L86.625 57.5449C86.2251 57.3998 85.8232 57.3065 85.4199 57.2646L85.4209 57.2637C85.0492 57.223 84.6582 57.2031 84.248 57.2031Z" fill="url(#paint10_linear_79_199)"/>
<path fill-rule="evenodd" clip-rule="evenodd" d="M343.476 51.4473C343.833 51.0744 344.235 50.7309 344.681 50.4189L344.684 50.417C345.343 49.9705 346.044 49.6045 346.785 49.3203L346.788 49.3193C347.544 49.0374 348.321 48.8259 349.118 48.6846L349.714 48.5791C350.306 48.4882 350.888 48.4424 351.459 48.4424C353.782 48.4424 355.957 48.874 357.98 49.7393L358.359 49.9014C360.241 50.7333 361.892 51.8663 363.31 53.3008C364.821 54.8302 366.015 56.6408 366.891 58.7285L367.05 59.1201C367.822 61.0881 368.207 63.2302 368.207 65.543C368.207 68.0686 367.77 70.3811 366.891 72.4756C366.014 74.5641 364.82 76.3647 363.308 77.875L363.307 77.877C361.889 79.2739 360.238 80.3778 358.357 81.1895L357.978 81.3477C355.955 82.1729 353.781 82.585 351.459 82.585C349.156 82.5849 346.982 82.1626 344.94 81.3174C342.92 80.4732 341.143 79.2958 339.612 77.7871L339.611 77.7861C338.1 76.2763 336.905 74.4856 336.028 72.417C335.15 70.323 334.712 68.0295 334.712 65.543V37H343.476V51.4473ZM351.46 56.6455C350.297 56.6455 349.194 56.9015 348.154 57.4131C347.141 57.9021 346.251 58.5648 345.486 59.3994C344.721 60.215 344.122 61.1625 343.689 62.2393C343.254 63.2994 343.036 64.4019 343.036 65.5439C343.036 66.8013 343.253 67.9727 343.688 69.0547C344.121 70.1326 344.721 71.0722 345.488 71.8691C346.254 72.6643 347.144 73.2971 348.157 73.7656L348.163 73.7676C349.201 74.2174 350.301 74.4424 351.46 74.4424C352.619 74.4423 353.709 74.2181 354.728 73.7676L354.73 73.7666C355.763 73.2983 356.664 72.6652 357.431 71.8691C358.198 71.0722 358.798 70.1327 359.232 69.0547L359.231 69.0537C359.686 67.9719 359.913 66.8012 359.913 65.5439C359.913 64.2868 359.686 63.1159 359.232 62.0342C358.798 60.9362 358.199 59.9863 357.431 59.1885C356.664 58.3917 355.761 57.769 354.727 57.3203C353.708 56.8698 352.619 56.6456 351.46 56.6455Z" fill="url(#paint11_linear_79_199)"/>
<path d="M37.3857 77.8436C35.375 79.5476 33.123 80.8552 30.6298 81.7666C28.1366 82.678 25.5529 83.1337 22.8787 83.1337C20.8278 83.1337 18.8473 82.8663 16.9372 82.3313C15.0472 81.8162 13.2677 81.0831 11.5989 80.132C9.95013 79.1612 8.44213 78.0021 7.07488 76.6548C5.70762 75.3076 4.53138 73.8216 3.54616 72.1969C2.58104 70.5524 1.82704 68.7989 1.28416 66.9365C0.761387 65.0543 0.5 63.1027 0.5 61.0817C0.5 59.0608 0.761387 57.1092 1.28416 55.2269C1.82704 53.3447 2.58104 51.5912 3.54616 49.9666C4.53138 48.3221 5.70762 46.8262 7.07488 45.4789C8.44213 44.1316 9.95013 42.9824 11.5989 42.0314C13.2677 41.0606 15.0472 40.3176 16.9372 39.8024C18.8473 39.2675 20.8278 39 22.8787 39C25.5529 39 28.1366 39.4557 30.6298 40.3671C33.123 41.2587 35.375 42.5664 37.3857 44.2901L32.8013 51.72C31.5346 50.3727 30.0367 49.3424 28.3075 48.6292C26.5783 47.8961 24.7687 47.5295 22.8787 47.5295C20.9686 47.5295 19.1791 47.8862 17.5102 48.5995C15.8414 49.3127 14.3836 50.2836 13.137 51.512C11.8904 52.7206 10.9052 54.157 10.1814 55.8213C9.45751 57.4658 9.09559 59.2193 9.09559 61.0817C9.09559 62.9442 9.45751 64.6976 10.1814 66.3421C10.9052 67.9668 11.8904 69.3933 13.137 70.6217C14.3836 71.8502 15.8414 72.821 17.5102 73.5343C19.1791 74.2476 20.9686 74.6042 22.8787 74.6042C24.7687 74.6042 26.5783 74.2476 28.3075 73.5343C30.0367 72.8012 31.5346 71.761 32.8013 70.4137L37.3857 77.8436Z" stroke="black" stroke-opacity="0.1"/>
<path d="M49.7814 82.2124H41.5477V50.3826H43.5383L46.2527 54.157C47.5797 52.9682 49.0877 52.0568 50.7767 51.4228C52.4656 50.769 54.2149 50.4421 56.0245 50.4421H63.2931V58.5258H56.0245C55.1599 58.5258 54.3456 58.6843 53.5816 59.0013C52.8175 59.3184 52.154 59.7542 51.591 60.309C51.028 60.8638 50.5857 61.5176 50.264 62.2705C49.9423 63.0234 49.7814 63.8258 49.7814 64.6778V82.2124Z" stroke="black" stroke-opacity="0.1"/>
<path fill-rule="evenodd" clip-rule="evenodd" d="M119.247 48C120.313 48 121.37 48.1311 122.415 48.3936C123.456 48.6551 124.467 49.018 125.446 49.4805C126.424 49.9419 127.351 50.4835 128.227 51.1055C129.047 51.6749 129.815 52.2891 130.533 52.9434L133.563 49.3662L133.639 49.2783H135.995V81.5479H133.628L133.553 81.4463L130.515 77.2949C129.784 77.9281 129.012 78.5307 128.197 79.0967C127.321 79.6988 126.393 80.2311 125.416 80.6924L125.412 80.6943C124.434 81.1362 123.424 81.4879 122.385 81.749L122.384 81.748C121.359 82.0105 120.313 82.1426 119.247 82.1426C117.091 82.1425 115.048 81.807 113.12 81.1357L112.735 80.9971C110.715 80.2328 108.936 79.1256 107.403 77.6758L107.121 77.3936C105.739 75.9761 104.638 74.2769 103.816 72.2998C102.937 70.1841 102.5 67.7827 102.5 65.1006C102.5 62.5946 102.938 60.2924 103.816 58.1982C104.693 56.0903 105.887 54.279 107.399 52.7686L107.4 52.7676C108.932 51.2586 110.709 50.091 112.729 49.2666C114.77 48.4217 116.944 48.0001 119.247 48ZM119.248 56.2031C118.094 56.2031 116.998 56.3958 115.963 56.7832L115.962 56.7842C114.945 57.1728 114.05 57.7464 113.281 58.5039L113.279 58.5068C112.529 59.267 111.938 60.2076 111.505 61.3242C111.069 62.4287 110.854 63.6896 110.854 65.1016C110.855 66.5136 111.07 67.784 111.505 68.9072C111.938 70.0046 112.529 70.9367 113.279 71.6963L113.281 71.6992C114.05 72.4566 114.945 73.0304 115.962 73.4189L115.963 73.4199C116.997 73.8072 118.094 74 119.248 74C120.41 73.9999 121.504 73.754 122.523 73.2617L122.525 73.2607C123.556 72.7526 124.456 72.0912 125.221 71.2764L125.223 71.2734C125.986 70.4398 126.583 69.4937 127.017 68.4375L127.019 68.4385C127.473 67.3586 127.701 66.2452 127.701 65.1016C127.701 63.9579 127.472 62.8539 127.017 61.793C126.638 60.8524 126.133 60.0099 125.5 59.2686L125.221 58.957C124.455 58.1217 123.554 57.4585 122.521 56.9697C121.502 56.4587 120.409 56.2033 119.248 56.2031Z" stroke="black" stroke-opacity="0.1"/>
<path d="M158.958 83.4904C156.967 83.4904 155.097 83.1238 153.348 82.3908C151.599 81.6379 150.061 80.6175 148.734 79.3296C147.427 78.022 146.391 76.5063 145.627 74.7825C144.883 73.0588 144.511 71.2161 144.511 69.2547V59.8038H140.5V51.72H144.511V39H152.715V51.72H165.201V59.8038H152.715V69.2547C152.715 70.1066 152.876 70.909 153.197 71.6619C153.519 72.395 153.961 73.0389 154.524 73.5937C155.087 74.1485 155.751 74.5943 156.515 74.9311C157.279 75.2481 158.093 75.4066 158.958 75.4066H165.201V83.4904H158.958Z" stroke="black" stroke-opacity="0.1"/>
<path d="M179.569 45.409C179.569 46.1619 179.418 46.8652 179.116 47.5191C178.835 48.1729 178.443 48.7475 177.94 49.2428C177.437 49.7183 176.844 50.1047 176.161 50.4019C175.497 50.6793 174.783 50.818 174.019 50.818C173.255 50.818 172.531 50.6793 171.848 50.4019C171.184 50.1047 170.601 49.7183 170.098 49.2428C169.616 48.7475 169.224 48.1729 168.922 47.5191C168.641 46.8652 168.5 46.1619 168.5 45.409C168.5 44.6759 168.641 43.9824 168.922 43.3286C169.224 42.655 169.616 42.0804 170.098 41.6049C170.601 41.1095 171.184 40.7232 171.848 40.4458C172.531 40.1486 173.255 40 174.019 40C174.783 40 175.497 40.1486 176.161 40.4458C176.844 40.7232 177.437 41.1095 177.94 41.6049C178.443 42.0804 178.835 42.655 179.116 43.3286C179.418 43.9824 179.569 44.6759 179.569 45.409Z" stroke="black" stroke-opacity="0.1"/>
<path d="M178.14 83.4904H169.846V51.6606H178.14V83.4904Z" stroke="black" stroke-opacity="0.1"/>
<path d="M193.612 83.4904L181.306 51.6606H190.686L197.744 71.5133L204.771 51.6606H214.181L201.875 83.4904H193.612Z" stroke="black" stroke-opacity="0.1"/>
<path d="M296.719 69.5557C296.719 71.3191 296.377 72.9834 295.694 74.5486C295.03 76.0941 294.105 77.4513 292.919 78.6202C291.753 79.7694 290.376 80.6808 288.787 81.3545C287.219 82.0083 285.54 82.3352 283.75 82.3352C282.142 82.3352 280.594 82.0578 279.106 81.5031C277.638 80.9483 276.311 80.1359 275.125 79.066C273.938 80.1359 272.601 80.9483 271.113 81.5031C269.626 82.0578 268.077 82.3352 266.469 82.3352C264.679 82.3352 262.99 82.0083 261.402 81.3545C259.834 80.6808 258.456 79.7694 257.27 78.6202C256.104 77.4513 255.179 76.0941 254.495 74.5486C253.832 72.9834 253.5 71.3191 253.5 69.5557V39.1228H262.156V69.5557C262.156 70.1501 262.266 70.7148 262.488 71.2498C262.709 71.7649 263.01 72.2206 263.392 72.6169C263.795 72.9933 264.257 73.2905 264.78 73.5085C265.303 73.7264 265.866 73.8354 266.469 73.8354C267.072 73.8354 267.635 73.7264 268.158 73.5085C268.681 73.2905 269.133 72.9933 269.515 72.6169C269.917 72.2206 270.229 71.7649 270.45 71.2498C270.671 70.7148 270.782 70.1501 270.782 69.5557V39.1228H279.438V69.5557C279.438 70.1501 279.548 70.7148 279.769 71.2498C279.99 71.7649 280.292 72.2206 280.674 72.6169C281.076 72.9933 281.539 73.2905 282.061 73.5085C282.584 73.7264 283.147 73.8354 283.75 73.8354C284.354 73.8354 284.917 73.7264 285.439 73.5085C285.962 73.2905 286.415 72.9933 286.797 72.6169C287.199 72.2206 287.51 71.7649 287.732 71.2498C287.973 70.7148 288.094 70.1501 288.094 69.5557V39.1228H296.719V69.5557Z" stroke="black" stroke-opacity="0.1"/>
<path fill-rule="evenodd" clip-rule="evenodd" d="M317.951 48.4424C319.318 48.4424 320.656 48.603 321.962 48.9248C323.267 49.2462 324.502 49.7093 325.665 50.3125L326.106 50.5449C327.124 51.1039 328.08 51.7708 328.973 52.5449C329.993 53.4099 330.891 54.3854 331.667 55.4717L331.779 55.6299L316.466 73.8145C316.649 73.8571 316.831 73.8905 317.013 73.9131C317.326 73.9321 317.639 73.9414 317.951 73.9414C318.733 73.9414 319.484 73.836 320.204 73.625C320.927 73.4132 321.6 73.1147 322.224 72.7305C322.866 72.3272 323.43 71.8483 323.916 71.293C324.423 70.717 324.832 70.0839 325.144 69.3936L325.291 69.0654L331.579 75.292L331.731 75.4424L331.607 75.6152C330.831 76.7014 329.932 77.6761 328.911 78.541L328.912 78.542C327.912 79.407 326.82 80.1417 325.636 80.7451L325.635 80.7441C324.471 81.3473 323.237 81.7999 321.933 82.1016C320.646 82.4236 319.318 82.585 317.951 82.585C315.648 82.5849 313.474 82.1626 311.432 81.3174C309.413 80.4732 307.636 79.2966 306.105 77.7881L306.104 77.7861C304.592 76.2762 303.397 74.4857 302.521 72.417C301.642 70.323 301.204 68.0296 301.204 65.543C301.204 62.9979 301.642 60.6667 302.521 58.5527C303.397 56.444 304.591 54.6417 306.105 53.1504L306.106 53.1494C307.637 51.6605 309.413 50.5039 311.433 49.6797L311.434 49.6787C313.475 48.8538 315.649 48.4425 317.951 48.4424ZM317.952 56.6455C316.795 56.6455 315.697 56.8595 314.661 57.2881L314.286 57.4492C313.424 57.8474 312.656 58.3873 311.984 59.0674L311.981 59.0703C311.232 59.8489 310.642 60.7888 310.209 61.8857C309.774 62.9697 309.559 64.1907 309.559 65.5439C309.559 65.8464 309.569 66.1879 309.589 66.5674L309.59 66.5811C309.631 66.9612 309.681 67.3515 309.742 67.751L309.743 67.7588L309.745 67.7656C309.827 68.147 309.919 68.519 310.021 68.8809C310.126 69.2544 310.264 69.5917 310.437 69.8896L310.624 70.2129L310.852 69.916L320.65 57.1035L320.329 56.9873C319.929 56.8421 319.527 56.7489 319.124 56.707L319.125 56.7061C318.753 56.6654 318.362 56.6455 317.952 56.6455Z" stroke="black" stroke-opacity="0.1"/>
<path fill-rule="evenodd" clip-rule="evenodd" d="M235.247 49C236.614 49 237.951 49.1606 239.258 49.4824C240.563 49.8039 241.797 50.2669 242.961 50.8701L243.401 51.1025C244.42 51.6615 245.376 52.3284 246.269 53.1025C247.289 53.9676 248.187 54.943 248.963 56.0293L249.075 56.1875L233.762 74.3721C233.944 74.4148 234.127 74.4481 234.309 74.4707C234.621 74.4897 234.934 74.499 235.247 74.499C236.028 74.499 236.78 74.3936 237.5 74.1826C238.223 73.9708 238.896 73.6723 239.52 73.2881C240.162 72.8848 240.726 72.4059 241.212 71.8506C241.718 71.2746 242.128 70.6415 242.439 69.9512L242.587 69.623L248.875 75.8496L249.026 76L248.902 76.1729C248.127 77.2591 247.227 78.2337 246.207 79.0986L246.208 79.0996C245.208 79.9646 244.115 80.6993 242.932 81.3027L242.931 81.3018C241.767 81.905 240.533 82.3575 239.229 82.6592C237.941 82.9812 236.614 83.1426 235.247 83.1426C232.944 83.1425 230.77 82.7202 228.728 81.875C226.708 81.0308 224.931 79.8542 223.4 78.3457L223.399 78.3438C221.888 76.8338 220.693 75.0433 219.816 72.9746C218.938 70.8806 218.5 68.5872 218.5 66.1006C218.5 63.5555 218.938 61.2243 219.816 59.1104C220.693 57.0016 221.887 55.1994 223.4 53.708L223.401 53.707C224.933 52.2181 226.709 51.0615 228.729 50.2373L228.729 50.2363C230.771 49.4115 232.945 49.0001 235.247 49ZM235.248 57.2031C234.091 57.2031 232.993 57.4171 231.957 57.8457L231.582 58.0068C230.719 58.405 229.951 58.9449 229.279 59.625L229.276 59.6279C228.528 60.4065 227.938 61.3465 227.505 62.4434C227.069 63.5273 226.854 64.7484 226.854 66.1016C226.855 66.404 226.865 66.7455 226.885 67.125L226.886 67.1387C226.926 67.5189 226.977 67.9091 227.038 68.3086L227.039 68.3164L227.041 68.3232C227.122 68.7046 227.214 69.0766 227.316 69.4385C227.422 69.812 227.56 70.1493 227.732 70.4473L227.92 70.7705L228.147 70.4736L237.945 57.6611L237.625 57.5449C237.225 57.3998 236.823 57.3065 236.42 57.2646L236.421 57.2637C236.049 57.223 235.658 57.2031 235.248 57.2031Z" stroke="black" stroke-opacity="0.1"/>
<path fill-rule="evenodd" clip-rule="evenodd" d="M84.2471 49C85.6138 49 86.9513 49.1606 88.2578 49.4824C89.5626 49.8039 90.7974 50.2669 91.9609 50.8701L92.4014 51.1025C93.4199 51.6615 94.3757 52.3284 95.2686 53.1025C96.2891 53.9676 97.1871 54.943 97.9629 56.0293L98.0752 56.1875L82.7617 74.3721C82.9443 74.4148 83.1265 74.4481 83.3086 74.4707C83.6214 74.4897 83.9343 74.499 84.2471 74.499C85.0284 74.499 85.7798 74.3936 86.5 74.1826C87.2229 73.9708 87.8957 73.6723 88.5195 73.2881C89.1622 72.8848 89.7261 72.4059 90.2119 71.8506C90.7185 71.2746 91.1281 70.6415 91.4395 69.9512L91.5869 69.623L97.875 75.8496L98.0264 76L97.9023 76.1729C97.1266 77.2591 96.2274 78.2337 95.207 79.0986L95.208 79.0996C94.2076 79.9646 93.1155 80.6993 91.9316 81.3027L91.9307 81.3018C90.7673 81.905 89.5332 82.3575 88.2285 82.6592C86.9415 82.9812 85.6139 83.1426 84.2471 83.1426C81.9439 83.1425 79.7697 82.7202 77.7275 81.875C75.7085 81.0308 73.9314 79.8542 72.4004 78.3457L72.3994 78.3438C70.8876 76.8338 69.6928 75.0433 68.8164 72.9746C67.9378 70.8806 67.5 68.5872 67.5 66.1006C67.5001 63.5555 67.9379 61.2243 68.8164 59.1104C69.6928 57.0016 70.8869 55.1994 72.4004 53.708L72.4014 53.707C73.9327 52.2181 75.7092 51.0615 77.7285 50.2373L77.7295 50.2363C79.7712 49.4115 81.9447 49.0001 84.2471 49ZM84.248 57.2031C83.0911 57.2031 81.9932 57.4171 80.957 57.8457L80.582 58.0068C79.7194 58.405 78.9513 58.9449 78.2793 59.625L78.2764 59.6279C77.528 60.4065 76.9378 61.3465 76.5049 62.4434C76.0694 63.5273 75.8545 64.7484 75.8545 66.1016C75.8545 66.404 75.8645 66.7455 75.8848 67.125L75.8857 67.1387C75.9264 67.5189 75.9773 67.9091 76.0381 68.3086L76.0391 68.3164L76.041 68.3232C76.1225 68.7046 76.2144 69.0766 76.3164 69.4385C76.4217 69.812 76.5597 70.1493 76.7324 70.4473L76.9199 70.7705L77.1475 70.4736L86.9453 57.6611L86.625 57.5449C86.2251 57.3998 85.8232 57.3065 85.4199 57.2646L85.4209 57.2637C85.0492 57.223 84.6582 57.2031 84.248 57.2031Z" stroke="black" stroke-opacity="0.1"/>
<path fill-rule="evenodd" clip-rule="evenodd" d="M343.476 51.4473C343.833 51.0744 344.235 50.7309 344.681 50.4189L344.684 50.417C345.343 49.9705 346.044 49.6045 346.785 49.3203L346.788 49.3193C347.544 49.0374 348.321 48.8259 349.118 48.6846L349.714 48.5791C350.306 48.4882 350.888 48.4424 351.459 48.4424C353.782 48.4424 355.957 48.874 357.98 49.7393L358.359 49.9014C360.241 50.7333 361.892 51.8663 363.31 53.3008C364.821 54.8302 366.015 56.6408 366.891 58.7285L367.05 59.1201C367.822 61.0881 368.207 63.2302 368.207 65.543C368.207 68.0686 367.77 70.3811 366.891 72.4756C366.014 74.5641 364.82 76.3647 363.308 77.875L363.307 77.877C361.889 79.2739 360.238 80.3778 358.357 81.1895L357.978 81.3477C355.955 82.1729 353.781 82.585 351.459 82.585C349.156 82.5849 346.982 82.1626 344.94 81.3174C342.92 80.4732 341.143 79.2958 339.612 77.7871L339.611 77.7861C338.1 76.2763 336.905 74.4856 336.028 72.417C335.15 70.323 334.712 68.0295 334.712 65.543V37H343.476V51.4473ZM351.46 56.6455C350.297 56.6455 349.194 56.9015 348.154 57.4131C347.141 57.9021 346.251 58.5648 345.486 59.3994C344.721 60.215 344.122 61.1625 343.689 62.2393C343.254 63.2994 343.036 64.4019 343.036 65.5439C343.036 66.8013 343.253 67.9727 343.688 69.0547C344.121 70.1326 344.721 71.0722 345.488 71.8691C346.254 72.6643 347.144 73.2971 348.157 73.7656L348.163 73.7676C349.201 74.2174 350.301 74.4424 351.46 74.4424C352.619 74.4423 353.709 74.2181 354.728 73.7676L354.73 73.7666C355.763 73.2983 356.664 72.6652 357.431 71.8691C358.198 71.0722 358.798 70.1327 359.232 69.0547L359.231 69.0537C359.686 67.9719 359.913 66.8012 359.913 65.5439C359.913 64.2868 359.686 63.1159 359.232 62.0342C358.798 60.9362 358.199 59.9863 357.431 59.1885C356.664 58.3917 355.761 57.769 354.727 57.3203C353.708 56.8698 352.619 56.6456 351.46 56.6455Z" stroke="black" stroke-opacity="0.1"/>
<path d="M143.5 19H162.237" stroke="url(#paint12_linear_79_199)"/>
<path fill-rule="evenodd" clip-rule="evenodd" d="M65.9414 6.37988C66.8592 6.37992 67.7581 6.4879 68.6357 6.7041C69.5115 6.9199 70.3407 7.23064 71.1221 7.63574L71.418 7.79199C72.1013 8.1671 72.7429 8.6147 73.3418 9.13379L73.5947 9.35547C74.1768 9.88032 74.6972 10.4619 75.1533 11.1006L75.2656 11.2588L65.1045 23.3232C65.1785 23.3375 65.2524 23.3512 65.3262 23.3604C65.5311 23.3727 65.7365 23.3799 65.9414 23.3799C66.4545 23.3798 66.9478 23.3102 67.4199 23.1719C67.8935 23.0331 68.3339 22.837 68.7422 22.5859C69.1643 22.3212 69.5369 22.0067 69.8555 21.6426C70.1877 21.2648 70.4561 20.849 70.6602 20.3965L70.8076 20.0684L75.085 24.3037L75.2363 24.4541L75.1123 24.627C74.5915 25.3562 73.9878 26.011 73.3027 26.5918C72.6311 27.1726 71.8972 27.6651 71.1025 28.0703L71.1035 28.0713C70.3206 28.4773 69.4899 28.7826 68.6123 28.9854L68.6113 28.9834C67.7479 29.1991 66.8575 29.3086 65.9414 29.3086C64.3957 29.3086 62.9353 29.0247 61.5635 28.457C60.2078 27.8903 59.0138 27.0992 57.9854 26.0859L57.9834 26.085C56.9676 25.0705 56.1663 23.8668 55.5781 22.4785C54.9877 21.0714 54.6924 19.5318 54.6924 17.8643C54.6924 16.1577 54.9867 14.5916 55.5771 13.1709C56.1653 11.7558 56.9679 10.5455 57.9854 9.54297L57.9863 9.54102C59.0151 8.54092 60.2096 7.76328 61.5654 7.20996C62.9368 6.656 64.3965 6.37992 65.9414 6.37988ZM65.9414 11.8477C65.1601 11.8477 64.4176 11.9926 63.7168 12.2822L63.4629 12.3916C62.8789 12.6612 62.3583 13.0269 61.9033 13.4873L61.9004 13.4893C61.3932 14.0168 60.9944 14.6534 60.7021 15.3936C60.4072 16.1275 60.2627 16.9525 60.2627 17.8633C60.2627 18.0666 60.2697 18.2959 60.2832 18.5498L60.2842 18.5635C60.3114 18.8182 60.345 19.0802 60.3857 19.3477L60.3877 19.3545L60.3887 19.3623C60.4433 19.618 60.5048 19.8676 60.5732 20.1104C60.645 20.365 60.7403 20.5963 60.8594 20.8018L61.0469 21.126L67.875 12.1973L67.5547 12.0811C67.2821 11.9821 67.0074 11.9183 66.7314 11.8896L66.7324 11.8887C66.4814 11.8612 66.2174 11.8477 65.9414 11.8477Z" fill="#382159"/>
<path fill-rule="evenodd" clip-rule="evenodd" d="M15.2715 0C16.8978 4.63241e-05 18.4254 0.303321 19.8516 0.911133C21.2869 1.51731 22.5414 2.34704 23.6104 3.40039C24.679 4.45351 25.5212 5.68868 26.1367 7.10352L26.249 7.36914C26.7918 8.69974 27.0625 10.1187 27.0625 11.623V28.9121H20.792V23.2256H9.75098V28.9121H3.5V11.623C3.5 10.0184 3.80808 8.51035 4.42578 7.10352C5.04095 5.68942 5.87681 4.45436 6.93164 3.40137L6.93262 3.40039C8.001 2.34766 9.24738 1.51832 10.6689 0.912109L10.6699 0.911133C12.1094 0.303214 13.6446 3.79086e-05 15.2715 0ZM15.2715 5.68652C14.4477 5.68654 13.6631 5.84473 12.9209 6.16211C12.1962 6.46458 11.5603 6.88519 11.0146 7.42285C10.4685 7.96108 10.0353 8.59554 9.71484 9.32324L9.71387 9.3252C9.40509 10.0445 9.25098 10.8114 9.25098 11.623V17.5596H21.292V11.623C21.292 10.8116 21.1313 10.0449 20.8096 9.32617C20.5024 8.59703 20.0752 7.96183 19.5283 7.42285C18.9825 6.88505 18.3396 6.46527 17.6025 6.16309C16.8728 5.84502 16.0952 5.68655 15.2715 5.68652Z" fill="#382159"/>
<path fill-rule="evenodd" clip-rule="evenodd" d="M40.8867 6.37988C41.6043 6.37988 42.3155 6.46798 43.0186 6.64453C43.718 6.82023 44.3977 7.06436 45.0557 7.375C45.711 7.68446 46.3325 8.04781 46.9199 8.46484C47.4453 8.82963 47.9391 9.22273 48.4023 9.63965L50.4424 7.23145H52.1357V25.9873C52.1357 27.5128 51.8408 28.9475 51.25 30.2881C50.6609 31.6244 49.851 32.7947 48.8223 33.7949L48.8213 33.7939C47.8063 34.7937 46.6144 35.5847 45.2471 36.1641L45.2461 36.1631C43.887 36.7445 42.4328 37.0352 40.8867 37.0352H40.8838L38.1289 36.9961L37.8828 36.9922V31.083L38.1357 31.0869L40.8477 31.126C41.6845 31.1259 42.3837 31.0168 42.9512 30.8057L42.9561 30.8037L43.167 30.7246C43.6492 30.531 44.0585 30.2762 44.3975 29.9639L44.4004 29.9609C44.7921 29.6123 45.1005 29.2088 45.3271 28.75L45.3301 28.7451C45.4129 28.5862 45.4875 28.4226 45.5586 28.2578C45.4921 28.3016 45.4232 28.3448 45.3516 28.3848L45.3467 28.3877C44.9262 28.6087 44.4588 28.7876 43.9473 28.9238L43.9463 28.9229C43.4498 29.0717 42.9269 29.1726 42.3789 29.2266L42.3799 29.2275C41.8501 29.2811 41.3519 29.3086 40.8867 29.3086C39.3433 29.3085 37.8851 29.0452 36.5146 28.5186C35.1585 27.992 33.963 27.2414 32.9336 26.2676L32.9316 26.2656C31.9134 25.2758 31.1107 24.0708 30.5225 22.6553C29.9317 21.2337 29.6387 19.6352 29.6387 17.8643C29.6387 16.2355 29.9325 14.7159 30.5225 13.3096C31.1104 11.9083 31.9123 10.6918 32.9277 9.66406L32.9287 9.66309C33.9568 8.63649 35.1502 7.83222 36.5059 7.25195C37.8782 6.67045 39.3401 6.37996 40.8867 6.37988ZM40.8877 11.8477C40.1089 11.8477 39.3684 11.9784 38.6689 12.2402H38.667C37.9785 12.5033 37.3722 12.8923 36.8516 13.4053L36.8496 13.4082C36.3404 13.9239 35.9406 14.5613 35.6484 15.3145C35.3534 16.0622 35.209 16.9137 35.209 17.8633C35.209 18.7748 35.3538 19.606 35.6484 20.3525L35.6494 20.3535C35.9419 21.0808 36.3401 21.7104 36.8467 22.2373L36.8496 22.2393C37.3688 22.7647 37.9725 23.1729 38.6592 23.4629L38.665 23.4648C39.3655 23.7409 40.1072 23.8789 40.8877 23.8789C41.6745 23.8788 42.4159 23.7126 43.1074 23.3789L43.1094 23.3779C43.8054 23.0349 44.4137 22.5878 44.9307 22.0371L44.9326 22.0342C45.4483 21.4709 45.8531 20.8315 46.1455 20.1182L46.1445 20.1172C46.4512 19.3881 46.6064 18.6362 46.6064 17.8633C46.6064 17.1863 46.4888 16.5296 46.2529 15.8955L46.1445 15.625C45.8887 14.9904 45.5466 14.4219 45.1191 13.9209L44.9307 13.71C44.4142 13.1465 43.8067 12.6992 43.1104 12.3691C42.4181 12.0211 41.6763 11.8477 40.8877 11.8477Z" fill="#382159"/>
<path d="M83.2118 28.6619H77.7227V7.44202H79.0497L80.8593 9.50258C81.744 8.71006 82.7426 8.10245 83.8552 7.67977C84.9812 7.24388 86.1541 7.02594 87.3739 7.02594C88.6875 7.02594 89.9274 7.27691 91.0936 7.77884C92.2598 8.26756 93.2785 8.94781 94.1498 9.81959C95.0211 10.6782 95.7047 11.6886 96.2007 12.851C96.71 14.0002 96.9647 15.2286 96.9647 16.5362V28.6619H91.4756V16.5362C91.4756 15.9815 91.3684 15.4597 91.1539 14.971C90.9394 14.4691 90.6445 14.0332 90.2692 13.6633C89.8939 13.2935 89.4582 13.0029 88.9623 12.7916C88.4663 12.5802 87.9368 12.4745 87.3739 12.4745C86.7975 12.4745 86.2546 12.5802 85.7452 12.7916C85.2358 13.0029 84.7935 13.2935 84.4182 13.6633C84.0429 14.0332 83.7479 14.4691 83.5335 14.971C83.319 15.4597 83.2118 15.9815 83.2118 16.5362V28.6619Z" fill="#382159"/>
<path d="M119.705 11.6622L115.684 15.6446C115.483 15.0899 115.208 14.5945 114.86 14.1587C114.511 13.7096 114.116 13.3331 113.673 13.0293C113.244 12.7255 112.775 12.4944 112.266 12.3358C111.757 12.1773 111.234 12.0981 110.698 12.0981C109.947 12.0981 109.236 12.25 108.566 12.5538C107.909 12.8576 107.333 13.2869 106.837 13.8416C106.355 14.3832 105.972 15.0304 105.691 15.7833C105.41 16.5362 105.269 17.3684 105.269 18.2798C105.269 19.0195 105.41 19.7129 105.691 20.3602C105.972 21.0074 106.355 21.5754 106.837 22.0641C107.333 22.5528 107.909 22.9359 108.566 23.2133C109.236 23.4906 109.947 23.6293 110.698 23.6293C111.234 23.6293 111.75 23.5567 112.246 23.4114C112.742 23.2661 113.204 23.0614 113.633 22.7972C114.075 22.5198 114.464 22.1896 114.799 21.8065C115.148 21.4103 115.429 20.9744 115.644 20.4989L119.665 24.4813C119.156 25.1946 118.566 25.8352 117.896 26.4032C117.239 26.9711 116.522 27.4533 115.744 27.8495C114.98 28.2458 114.169 28.543 113.311 28.7411C112.467 28.9525 111.596 29.0581 110.698 29.0581C109.183 29.0581 107.755 28.7807 106.415 28.226C105.088 27.658 103.922 26.8853 102.916 25.9078C101.924 24.9304 101.14 23.7878 100.564 22.4802C99.9874 21.1725 99.6992 19.7724 99.6992 18.2798C99.6992 16.6551 99.9874 15.1361 100.564 13.7228C101.14 12.3094 101.924 11.081 102.916 10.0375C103.922 8.98083 105.088 8.14868 106.415 7.54107C107.755 6.93347 109.183 6.62967 110.698 6.62967C111.596 6.62967 112.474 6.74194 113.332 6.96649C114.203 7.19104 115.027 7.52126 115.805 7.95715C116.596 8.37983 117.319 8.90157 117.976 9.52239C118.646 10.1432 119.223 10.8565 119.705 11.6622Z" fill="#382159"/>
<path d="M129.786 25.9598L135.946 7H142.578L133.242 31.5885C133.041 32.1284 132.769 32.7077 132.426 33.3265C132.097 33.9454 131.646 34.5313 131.074 35.0843C130.516 35.6504 129.807 36.1113 128.949 36.4668C128.105 36.8223 127.067 37 125.837 37C125.25 37 124.771 36.9671 124.399 36.9013C124.027 36.8354 123.583 36.7433 123.068 36.6248V32.4575C123.225 32.4575 123.39 32.4575 123.562 32.4575C123.733 32.4707 123.898 32.4773 124.055 32.4773C124.871 32.4773 125.536 32.3917 126.051 32.2205C126.566 32.0494 126.981 31.786 127.296 31.4305C127.611 31.0882 127.861 30.6406 128.047 30.0876L129.786 25.9598ZM127.21 7L132.254 22.4839L133.134 28.5076L128.927 28.9223L120.578 7H127.21Z" fill="#382159"/>
<defs>
<linearGradient id="paint0_linear_79_199" x1="0.5" y1="59.7925" x2="368.207" y2="59.7925" gradientUnits="userSpaceOnUse">
<stop stop-color="#382159"/>
<stop offset="0.5" stop-color="#9624C6"/>
<stop offset="1" stop-color="#BE44F1"/>
</linearGradient>
<linearGradient id="paint1_linear_79_199" x1="0.5" y1="59.7925" x2="368.207" y2="59.7925" gradientUnits="userSpaceOnUse">
<stop stop-color="#382159"/>
<stop offset="0.5" stop-color="#9624C6"/>
<stop offset="1" stop-color="#BE44F1"/>
</linearGradient>
<linearGradient id="paint2_linear_79_199" x1="0.5" y1="59.7925" x2="368.207" y2="59.7925" gradientUnits="userSpaceOnUse">
<stop stop-color="#382159"/>
<stop offset="0.5" stop-color="#9624C6"/>
<stop offset="1" stop-color="#BE44F1"/>
</linearGradient>
<linearGradient id="paint3_linear_79_199" x1="0.5" y1="59.7925" x2="368.207" y2="59.7925" gradientUnits="userSpaceOnUse">
<stop stop-color="#382159"/>
<stop offset="0.5" stop-color="#9624C6"/>
<stop offset="1" stop-color="#BE44F1"/>
</linearGradient>
<linearGradient id="paint4_linear_79_199" x1="0.5" y1="59.7925" x2="368.207" y2="59.7925" gradientUnits="userSpaceOnUse">
<stop stop-color="#382159"/>
<stop offset="0.5" stop-color="#9624C6"/>
<stop offset="1" stop-color="#BE44F1"/>
</linearGradient>
<linearGradient id="paint5_linear_79_199" x1="0.5" y1="59.7925" x2="368.207" y2="59.7925" gradientUnits="userSpaceOnUse">
<stop stop-color="#382159"/>
<stop offset="0.5" stop-color="#9624C6"/>
<stop offset="1" stop-color="#BE44F1"/>
</linearGradient>
<linearGradient id="paint6_linear_79_199" x1="0.5" y1="59.7925" x2="368.207" y2="59.7925" gradientUnits="userSpaceOnUse">
<stop stop-color="#382159"/>
<stop offset="0.5" stop-color="#9624C6"/>
<stop offset="1" stop-color="#BE44F1"/>
</linearGradient>
<linearGradient id="paint7_linear_79_199" x1="0.5" y1="59.7925" x2="368.207" y2="59.7925" gradientUnits="userSpaceOnUse">
<stop stop-color="#382159"/>
<stop offset="0.5" stop-color="#9624C6"/>
<stop offset="1" stop-color="#BE44F1"/>
</linearGradient>
<linearGradient id="paint8_linear_79_199" x1="0.5" y1="59.7925" x2="368.207" y2="59.7925" gradientUnits="userSpaceOnUse">
<stop stop-color="#382159"/>
<stop offset="0.5" stop-color="#9624C6"/>
<stop offset="1" stop-color="#BE44F1"/>
</linearGradient>
<linearGradient id="paint9_linear_79_199" x1="0.5" y1="59.7925" x2="368.207" y2="59.7925" gradientUnits="userSpaceOnUse">
<stop stop-color="#382159"/>
<stop offset="0.5" stop-color="#9624C6"/>
<stop offset="1" stop-color="#BE44F1"/>
</linearGradient>
<linearGradient id="paint10_linear_79_199" x1="0.5" y1="59.7925" x2="368.207" y2="59.7925" gradientUnits="userSpaceOnUse">
<stop stop-color="#382159"/>
<stop offset="0.5" stop-color="#9624C6"/>
<stop offset="1" stop-color="#BE44F1"/>
</linearGradient>
<linearGradient id="paint11_linear_79_199" x1="0.5" y1="59.7925" x2="368.207" y2="59.7925" gradientUnits="userSpaceOnUse">
<stop stop-color="#382159"/>
<stop offset="0.5" stop-color="#9624C6"/>
<stop offset="1" stop-color="#BE44F1"/>
</linearGradient>
<linearGradient id="paint12_linear_79_199" x1="140.5" y1="22.8041" x2="166.237" y2="22.8041" gradientUnits="userSpaceOnUse">
<stop stop-color="#382159"/>
<stop offset="1" stop-color="#AB35DC"/>
</linearGradient>
</defs>
</svg>
