<svg width="368" height="84" viewBox="0 0 368 84" fill="none" xmlns="http://www.w3.org/2000/svg">
<path d="M36.8857 77.8436C34.875 79.5476 32.623 80.8552 30.1298 81.7666C27.6366 82.678 25.0529 83.1337 22.3787 83.1337C20.3278 83.1337 18.3473 82.8663 16.4372 82.3313C14.5472 81.8162 12.7677 81.0831 11.0989 80.132C9.45013 79.1612 7.94213 78.0021 6.57488 76.6548C5.20762 75.3076 4.03138 73.8216 3.04616 72.1969C2.08104 70.5524 1.32704 68.7989 0.784159 66.9365C0.261387 65.0543 0 63.1027 0 61.0817C0 59.0608 0.261387 57.1092 0.784159 55.2269C1.32704 53.3447 2.08104 51.5912 3.04616 49.9666C4.03138 48.3221 5.20762 46.8262 6.57488 45.4789C7.94213 44.1316 9.45013 42.9824 11.0989 42.0314C12.7677 41.0606 14.5472 40.3176 16.4372 39.8024C18.3473 39.2675 20.3278 39 22.3787 39C25.0529 39 27.6366 39.4557 30.1298 40.3671C32.623 41.2587 34.875 42.5664 36.8857 44.2901L32.3013 51.72C31.0346 50.3727 29.5367 49.3424 27.8075 48.6292C26.0783 47.8961 24.2687 47.5295 22.3787 47.5295C20.4686 47.5295 18.6791 47.8862 17.0102 48.5995C15.3414 49.3127 13.8836 50.2836 12.637 51.512C11.3904 52.7206 10.4052 54.157 9.68135 55.8213C8.95751 57.4658 8.59559 59.2193 8.59559 61.0817C8.59559 62.9442 8.95751 64.6976 9.68135 66.3421C10.4052 67.9668 11.3904 69.3933 12.637 70.6217C13.8836 71.8502 15.3414 72.821 17.0102 73.5343C18.6791 74.2476 20.4686 74.6042 22.3787 74.6042C24.2687 74.6042 26.0783 74.2476 27.8075 73.5343C29.5367 72.8012 31.0346 71.761 32.3013 70.4137L36.8857 77.8436Z" fill="white"/>
<path d="M49.2814 82.2124H41.0477V50.3826H43.0383L45.7527 54.157C47.0797 52.9682 48.5877 52.0568 50.2767 51.4228C51.9656 50.769 53.7149 50.4421 55.5245 50.4421H62.7931V58.5258H55.5245C54.6599 58.5258 53.8456 58.6843 53.0816 59.0013C52.3175 59.3184 51.654 59.7542 51.091 60.309C50.528 60.8638 50.0857 61.5176 49.764 62.2705C49.4423 63.0234 49.2814 63.8258 49.2814 64.6778V82.2124Z" fill="white"/>
<path fill-rule="evenodd" clip-rule="evenodd" d="M118.747 48C119.813 48 120.87 48.1311 121.915 48.3936C122.956 48.6551 123.967 49.018 124.946 49.4805C125.924 49.9419 126.851 50.4835 127.727 51.1055C128.547 51.6749 129.315 52.2891 130.033 52.9434L133.063 49.3662L133.139 49.2783H135.495V81.5479H133.128L133.053 81.4463L130.015 77.2949C129.284 77.9281 128.512 78.5307 127.697 79.0967C126.821 79.6988 125.893 80.2311 124.916 80.6924L124.912 80.6943C123.934 81.1362 122.924 81.4879 121.885 81.749L121.884 81.748C120.859 82.0105 119.813 82.1426 118.747 82.1426C116.591 82.1425 114.548 81.807 112.62 81.1357L112.235 80.9971C110.215 80.2328 108.436 79.1256 106.903 77.6758L106.621 77.3936C105.239 75.9761 104.138 74.2769 103.316 72.2998C102.437 70.1841 102 67.7827 102 65.1006C102 62.5946 102.438 60.2924 103.316 58.1982C104.193 56.0903 105.387 54.279 106.899 52.7686L106.9 52.7676C108.432 51.2586 110.209 50.091 112.229 49.2666C114.27 48.4217 116.444 48.0001 118.747 48ZM118.748 56.2031C117.594 56.2031 116.498 56.3958 115.463 56.7832L115.462 56.7842C114.445 57.1728 113.55 57.7464 112.781 58.5039L112.779 58.5068C112.029 59.267 111.438 60.2076 111.005 61.3242C110.569 62.4287 110.354 63.6896 110.354 65.1016C110.355 66.5136 110.57 67.784 111.005 68.9072C111.438 70.0046 112.029 70.9367 112.779 71.6963L112.781 71.6992C113.55 72.4566 114.445 73.0304 115.462 73.4189L115.463 73.4199C116.497 73.8072 117.594 74 118.748 74C119.91 73.9999 121.004 73.754 122.023 73.2617L122.025 73.2607C123.056 72.7526 123.956 72.0912 124.721 71.2764L124.723 71.2734C125.486 70.4398 126.083 69.4937 126.517 68.4375L126.519 68.4385C126.973 67.3586 127.201 66.2452 127.201 65.1016C127.201 63.9579 126.972 62.8539 126.517 61.793C126.138 60.8524 125.633 60.0099 125 59.2686L124.721 58.957C123.955 58.1217 123.054 57.4585 122.021 56.9697C121.002 56.4587 119.909 56.2033 118.748 56.2031Z" fill="white"/>
<path d="M158.458 83.4904C156.467 83.4904 154.597 83.1238 152.848 82.3908C151.099 81.6379 149.561 80.6175 148.234 79.3296C146.927 78.022 145.891 76.5063 145.127 74.7825C144.383 73.0588 144.011 71.2161 144.011 69.2547V59.8038H140V51.72H144.011V39H152.215V51.72H164.701V59.8038H152.215V69.2547C152.215 70.1066 152.376 70.909 152.697 71.6619C153.019 72.395 153.461 73.0389 154.024 73.5937C154.587 74.1485 155.251 74.5943 156.015 74.9311C156.779 75.2481 157.593 75.4066 158.458 75.4066H164.701V83.4904H158.458Z" fill="white"/>
<path d="M179.069 45.409C179.069 46.1619 178.918 46.8652 178.616 47.5191C178.335 48.1729 177.943 48.7475 177.44 49.2428C176.937 49.7183 176.344 50.1047 175.661 50.4019C174.997 50.6793 174.283 50.818 173.519 50.818C172.755 50.818 172.031 50.6793 171.348 50.4019C170.684 50.1047 170.101 49.7183 169.598 49.2428C169.116 48.7475 168.724 48.1729 168.422 47.5191C168.141 46.8652 168 46.1619 168 45.409C168 44.6759 168.141 43.9824 168.422 43.3286C168.724 42.655 169.116 42.0804 169.598 41.6049C170.101 41.1095 170.684 40.7232 171.348 40.4458C172.031 40.1486 172.755 40 173.519 40C174.283 40 174.997 40.1486 175.661 40.4458C176.344 40.7232 176.937 41.1095 177.44 41.6049C177.943 42.0804 178.335 42.655 178.616 43.3286C178.918 43.9824 179.069 44.6759 179.069 45.409Z" fill="white"/>
<path d="M177.64 83.4904H169.346V51.6606H177.64V83.4904Z" fill="white"/>
<path d="M193.112 83.4904L180.806 51.6606H190.186L197.244 71.5133L204.271 51.6606H213.681L201.375 83.4904H193.112Z" fill="white"/>
<path d="M296.219 69.5557C296.219 71.3191 295.877 72.9834 295.194 74.5486C294.53 76.0941 293.605 77.4513 292.419 78.6202C291.253 79.7694 289.876 80.6808 288.287 81.3545C286.719 82.0083 285.04 82.3352 283.25 82.3352C281.642 82.3352 280.094 82.0578 278.606 81.5031C277.138 80.9483 275.811 80.1359 274.625 79.066C273.438 80.1359 272.101 80.9483 270.613 81.5031C269.126 82.0578 267.577 82.3352 265.969 82.3352C264.179 82.3352 262.49 82.0083 260.902 81.3545C259.334 80.6808 257.956 79.7694 256.77 78.6202C255.604 77.4513 254.679 76.0941 253.995 74.5486C253.332 72.9834 253 71.3191 253 69.5557V39.1228H261.656V69.5557C261.656 70.1501 261.766 70.7148 261.988 71.2498C262.209 71.7649 262.51 72.2206 262.892 72.6169C263.295 72.9933 263.757 73.2905 264.28 73.5085C264.803 73.7264 265.366 73.8354 265.969 73.8354C266.572 73.8354 267.135 73.7264 267.658 73.5085C268.181 73.2905 268.633 72.9933 269.015 72.6169C269.417 72.2206 269.729 71.7649 269.95 71.2498C270.171 70.7148 270.282 70.1501 270.282 69.5557V39.1228H278.938V69.5557C278.938 70.1501 279.048 70.7148 279.269 71.2498C279.49 71.7649 279.792 72.2206 280.174 72.6169C280.576 72.9933 281.039 73.2905 281.561 73.5085C282.084 73.7264 282.647 73.8354 283.25 73.8354C283.854 73.8354 284.417 73.7264 284.939 73.5085C285.462 73.2905 285.915 72.9933 286.297 72.6169C286.699 72.2206 287.01 71.7649 287.232 71.2498C287.473 70.7148 287.594 70.1501 287.594 69.5557V39.1228H296.219V69.5557Z" fill="white"/>
<path fill-rule="evenodd" clip-rule="evenodd" d="M317.451 48.4424C318.818 48.4424 320.156 48.603 321.462 48.9248C322.767 49.2462 324.002 49.7093 325.165 50.3125L325.606 50.5449C326.624 51.1039 327.58 51.7708 328.473 52.5449C329.493 53.4099 330.391 54.3854 331.167 55.4717L331.279 55.6299L315.966 73.8145C316.149 73.8571 316.331 73.8905 316.513 73.9131C316.826 73.9321 317.139 73.9414 317.451 73.9414C318.233 73.9414 318.984 73.836 319.704 73.625C320.427 73.4132 321.1 73.1147 321.724 72.7305C322.366 72.3272 322.93 71.8483 323.416 71.293C323.923 70.717 324.332 70.0839 324.644 69.3936L324.791 69.0654L331.079 75.292L331.231 75.4424L331.107 75.6152C330.331 76.7014 329.432 77.6761 328.411 78.541L328.412 78.542C327.412 79.407 326.32 80.1417 325.136 80.7451L325.135 80.7441C323.971 81.3473 322.737 81.7999 321.433 82.1016C320.146 82.4236 318.818 82.585 317.451 82.585C315.148 82.5849 312.974 82.1626 310.932 81.3174C308.913 80.4732 307.136 79.2966 305.605 77.7881L305.604 77.7861C304.092 76.2762 302.897 74.4857 302.021 72.417C301.142 70.323 300.704 68.0296 300.704 65.543C300.704 62.9979 301.142 60.6667 302.021 58.5527C302.897 56.444 304.091 54.6417 305.605 53.1504L305.606 53.1494C307.137 51.6605 308.913 50.5039 310.933 49.6797L310.934 49.6787C312.975 48.8538 315.149 48.4425 317.451 48.4424ZM317.452 56.6455C316.295 56.6455 315.197 56.8595 314.161 57.2881L313.786 57.4492C312.924 57.8474 312.156 58.3873 311.484 59.0674L311.481 59.0703C310.732 59.8489 310.142 60.7888 309.709 61.8857C309.274 62.9697 309.059 64.1907 309.059 65.5439C309.059 65.8464 309.069 66.1879 309.089 66.5674L309.09 66.5811C309.131 66.9612 309.181 67.3515 309.242 67.751L309.243 67.7588L309.245 67.7656C309.327 68.147 309.419 68.519 309.521 68.8809C309.626 69.2544 309.764 69.5917 309.937 69.8896L310.124 70.2129L310.352 69.916L320.15 57.1035L319.829 56.9873C319.429 56.8421 319.027 56.7489 318.624 56.707L318.625 56.7061C318.253 56.6654 317.862 56.6455 317.452 56.6455Z" fill="white"/>
<path fill-rule="evenodd" clip-rule="evenodd" d="M234.747 49C236.114 49 237.451 49.1606 238.758 49.4824C240.063 49.8039 241.297 50.2669 242.461 50.8701L242.901 51.1025C243.92 51.6615 244.876 52.3284 245.769 53.1025C246.789 53.9676 247.687 54.943 248.463 56.0293L248.575 56.1875L233.262 74.3721C233.444 74.4148 233.627 74.4481 233.809 74.4707C234.121 74.4897 234.434 74.499 234.747 74.499C235.528 74.499 236.28 74.3936 237 74.1826C237.723 73.9708 238.396 73.6723 239.02 73.2881C239.662 72.8848 240.226 72.4059 240.712 71.8506C241.218 71.2746 241.628 70.6415 241.939 69.9512L242.087 69.623L248.375 75.8496L248.526 76L248.402 76.1729C247.627 77.2591 246.727 78.2337 245.707 79.0986L245.708 79.0996C244.708 79.9646 243.615 80.6993 242.432 81.3027L242.431 81.3018C241.267 81.905 240.033 82.3575 238.729 82.6592C237.441 82.9812 236.114 83.1426 234.747 83.1426C232.444 83.1425 230.27 82.7202 228.228 81.875C226.208 81.0308 224.431 79.8542 222.9 78.3457L222.899 78.3438C221.388 76.8338 220.193 75.0433 219.316 72.9746C218.438 70.8806 218 68.5872 218 66.1006C218 63.5555 218.438 61.2243 219.316 59.1104C220.193 57.0016 221.387 55.1994 222.9 53.708L222.901 53.707C224.433 52.2181 226.209 51.0615 228.229 50.2373L228.229 50.2363C230.271 49.4115 232.445 49.0001 234.747 49ZM234.748 57.2031C233.591 57.2031 232.493 57.4171 231.457 57.8457L231.082 58.0068C230.219 58.405 229.451 58.9449 228.779 59.625L228.776 59.6279C228.028 60.4065 227.438 61.3465 227.005 62.4434C226.569 63.5273 226.354 64.7484 226.354 66.1016C226.355 66.404 226.365 66.7455 226.385 67.125L226.386 67.1387C226.426 67.5189 226.477 67.9091 226.538 68.3086L226.539 68.3164L226.541 68.3232C226.622 68.7046 226.714 69.0766 226.816 69.4385C226.922 69.812 227.06 70.1493 227.232 70.4473L227.42 70.7705L227.647 70.4736L237.445 57.6611L237.125 57.5449C236.725 57.3998 236.323 57.3065 235.92 57.2646L235.921 57.2637C235.549 57.223 235.158 57.2031 234.748 57.2031Z" fill="white"/>
<path fill-rule="evenodd" clip-rule="evenodd" d="M83.7471 49C85.1138 49 86.4513 49.1606 87.7578 49.4824C89.0626 49.8039 90.2974 50.2669 91.4609 50.8701L91.9014 51.1025C92.9199 51.6615 93.8757 52.3284 94.7686 53.1025C95.7891 53.9676 96.6871 54.943 97.4629 56.0293L97.5752 56.1875L82.2617 74.3721C82.4443 74.4148 82.6265 74.4481 82.8086 74.4707C83.1214 74.4897 83.4343 74.499 83.7471 74.499C84.5284 74.499 85.2798 74.3936 86 74.1826C86.7229 73.9708 87.3957 73.6723 88.0195 73.2881C88.6622 72.8848 89.2261 72.4059 89.7119 71.8506C90.2185 71.2746 90.6281 70.6415 90.9395 69.9512L91.0869 69.623L97.375 75.8496L97.5264 76L97.4023 76.1729C96.6266 77.2591 95.7274 78.2337 94.707 79.0986L94.708 79.0996C93.7076 79.9646 92.6155 80.6993 91.4316 81.3027L91.4307 81.3018C90.2673 81.905 89.0332 82.3575 87.7285 82.6592C86.4415 82.9812 85.1139 83.1426 83.7471 83.1426C81.4439 83.1425 79.2697 82.7202 77.2275 81.875C75.2085 81.0308 73.4314 79.8542 71.9004 78.3457L71.8994 78.3438C70.3876 76.8338 69.1928 75.0433 68.3164 72.9746C67.4378 70.8806 67 68.5872 67 66.1006C67.0001 63.5555 67.4379 61.2243 68.3164 59.1104C69.1928 57.0016 70.3869 55.1994 71.9004 53.708L71.9014 53.707C73.4327 52.2181 75.2092 51.0615 77.2285 50.2373L77.2295 50.2363C79.2712 49.4115 81.4447 49.0001 83.7471 49ZM83.748 57.2031C82.5911 57.2031 81.4932 57.4171 80.457 57.8457L80.082 58.0068C79.2194 58.405 78.4513 58.9449 77.7793 59.625L77.7764 59.6279C77.028 60.4065 76.4378 61.3465 76.0049 62.4434C75.5694 63.5273 75.3545 64.7484 75.3545 66.1016C75.3545 66.404 75.3645 66.7455 75.3848 67.125L75.3857 67.1387C75.4264 67.5189 75.4773 67.9091 75.5381 68.3086L75.5391 68.3164L75.541 68.3232C75.6225 68.7046 75.7144 69.0766 75.8164 69.4385C75.9217 69.812 76.0597 70.1493 76.2324 70.4473L76.4199 70.7705L76.6475 70.4736L86.4453 57.6611L86.125 57.5449C85.7251 57.3998 85.3232 57.3065 84.9199 57.2646L84.9209 57.2637C84.5492 57.223 84.1582 57.2031 83.748 57.2031Z" fill="white"/>
<path fill-rule="evenodd" clip-rule="evenodd" d="M342.976 51.4473C343.333 51.0744 343.735 50.7309 344.181 50.4189L344.184 50.417C344.843 49.9705 345.544 49.6045 346.285 49.3203L346.288 49.3193C347.044 49.0374 347.821 48.8259 348.618 48.6846L349.214 48.5791C349.806 48.4882 350.388 48.4424 350.959 48.4424C353.282 48.4424 355.457 48.874 357.48 49.7393L357.859 49.9014C359.741 50.7333 361.392 51.8663 362.81 53.3008C364.321 54.8302 365.515 56.6408 366.391 58.7285L366.55 59.1201C367.322 61.0881 367.707 63.2302 367.707 65.543C367.707 68.0686 367.27 70.3811 366.391 72.4756C365.514 74.5641 364.32 76.3647 362.808 77.875L362.807 77.877C361.389 79.2739 359.738 80.3778 357.857 81.1895L357.478 81.3477C355.455 82.1729 353.281 82.585 350.959 82.585C348.656 82.5849 346.482 82.1626 344.44 81.3174C342.42 80.4732 340.643 79.2958 339.112 77.7871L339.111 77.7861C337.6 76.2763 336.405 74.4856 335.528 72.417C334.65 70.323 334.212 68.0295 334.212 65.543V37H342.976V51.4473ZM350.96 56.6455C349.797 56.6455 348.694 56.9015 347.654 57.4131C346.641 57.9021 345.751 58.5648 344.986 59.3994C344.221 60.215 343.622 61.1625 343.189 62.2393C342.754 63.2994 342.536 64.4019 342.536 65.5439C342.536 66.8013 342.753 67.9727 343.188 69.0547C343.621 70.1326 344.221 71.0722 344.988 71.8691C345.754 72.6643 346.644 73.2971 347.657 73.7656L347.663 73.7676C348.701 74.2174 349.801 74.4424 350.96 74.4424C352.119 74.4423 353.209 74.2181 354.228 73.7676L354.23 73.7666C355.263 73.2983 356.164 72.6652 356.931 71.8691C357.698 71.0722 358.298 70.1327 358.732 69.0547L358.731 69.0537C359.186 67.9719 359.413 66.8012 359.413 65.5439C359.413 64.2868 359.186 63.1159 358.732 62.0342C358.298 60.9362 357.699 59.9863 356.931 59.1885C356.164 58.3917 355.261 57.769 354.227 57.3203C353.208 56.8698 352.119 56.6456 350.96 56.6455Z" fill="white"/>
<path d="M143 19H161.737" stroke="white"/>
<path fill-rule="evenodd" clip-rule="evenodd" d="M65.4414 6.37988C66.3592 6.37992 67.2581 6.4879 68.1357 6.7041C69.0115 6.9199 69.8407 7.23064 70.6221 7.63574L70.918 7.79199C71.6013 8.1671 72.2429 8.6147 72.8418 9.13379L73.0947 9.35547C73.6768 9.88032 74.1972 10.4619 74.6533 11.1006L74.7656 11.2588L64.6045 23.3232C64.6785 23.3375 64.7524 23.3512 64.8262 23.3604C65.0311 23.3727 65.2365 23.3799 65.4414 23.3799C65.9545 23.3798 66.4478 23.3102 66.9199 23.1719C67.3935 23.0331 67.8339 22.837 68.2422 22.5859C68.6643 22.3212 69.0369 22.0067 69.3555 21.6426C69.6877 21.2648 69.9561 20.849 70.1602 20.3965L70.3076 20.0684L74.585 24.3037L74.7363 24.4541L74.6123 24.627C74.0915 25.3562 73.4878 26.011 72.8027 26.5918C72.1311 27.1726 71.3972 27.6651 70.6025 28.0703L70.6035 28.0713C69.8206 28.4773 68.9899 28.7826 68.1123 28.9854L68.1113 28.9834C67.2479 29.1991 66.3575 29.3086 65.4414 29.3086C63.8957 29.3086 62.4353 29.0247 61.0635 28.457C59.7078 27.8903 58.5138 27.0992 57.4854 26.0859L57.4834 26.085C56.4676 25.0705 55.6663 23.8668 55.0781 22.4785C54.4877 21.0714 54.1924 19.5318 54.1924 17.8643C54.1924 16.1577 54.4867 14.5916 55.0771 13.1709C55.6653 11.7558 56.4679 10.5455 57.4854 9.54297L57.4863 9.54102C58.5151 8.54092 59.7096 7.76328 61.0654 7.20996C62.4368 6.656 63.8965 6.37992 65.4414 6.37988ZM65.4414 11.8477C64.6601 11.8477 63.9176 11.9926 63.2168 12.2822L62.9629 12.3916C62.3789 12.6612 61.8583 13.0269 61.4033 13.4873L61.4004 13.4893C60.8932 14.0168 60.4944 14.6534 60.2021 15.3936C59.9072 16.1275 59.7627 16.9525 59.7627 17.8633C59.7627 18.0666 59.7697 18.2959 59.7832 18.5498L59.7842 18.5635C59.8114 18.8182 59.845 19.0802 59.8857 19.3477L59.8877 19.3545L59.8887 19.3623C59.9433 19.618 60.0048 19.8676 60.0732 20.1104C60.145 20.365 60.2403 20.5963 60.3594 20.8018L60.5469 21.126L67.375 12.1973L67.0547 12.0811C66.7821 11.9821 66.5074 11.9183 66.2314 11.8896L66.2324 11.8887C65.9814 11.8612 65.7174 11.8477 65.4414 11.8477Z" fill="white"/>
<path fill-rule="evenodd" clip-rule="evenodd" d="M14.7715 0C16.3978 4.63241e-05 17.9254 0.303321 19.3516 0.911133C20.7869 1.51731 22.0414 2.34704 23.1104 3.40039C24.179 4.45351 25.0212 5.68868 25.6367 7.10352L25.749 7.36914C26.2918 8.69974 26.5625 10.1187 26.5625 11.623V28.9121H20.292V23.2256H9.25098V28.9121H3V11.623C3 10.0184 3.30808 8.51035 3.92578 7.10352C4.54095 5.68942 5.37681 4.45436 6.43164 3.40137L6.43262 3.40039C7.501 2.34766 8.74738 1.51832 10.1689 0.912109L10.1699 0.911133C11.6094 0.303214 13.1446 3.79086e-05 14.7715 0ZM14.7715 5.68652C13.9477 5.68654 13.1631 5.84473 12.4209 6.16211C11.6962 6.46458 11.0603 6.88519 10.5146 7.42285C9.96846 7.96108 9.53532 8.59554 9.21484 9.32324L9.21387 9.3252C8.90509 10.0445 8.75098 10.8114 8.75098 11.623V17.5596H20.792V11.623C20.792 10.8116 20.6313 10.0449 20.3096 9.32617C20.0024 8.59703 19.5752 7.96183 19.0283 7.42285C18.4825 6.88505 17.8396 6.46527 17.1025 6.16309C16.3728 5.84502 15.5952 5.68655 14.7715 5.68652Z" fill="white"/>
<path fill-rule="evenodd" clip-rule="evenodd" d="M40.3867 6.37988C41.1043 6.37988 41.8155 6.46798 42.5186 6.64453C43.218 6.82023 43.8977 7.06436 44.5557 7.375C45.211 7.68446 45.8325 8.04781 46.4199 8.46484C46.9453 8.82963 47.4391 9.22273 47.9023 9.63965L49.9424 7.23145H51.6357V25.9873C51.6357 27.5128 51.3408 28.9475 50.75 30.2881C50.1609 31.6244 49.351 32.7947 48.3223 33.7949L48.3213 33.7939C47.3063 34.7937 46.1144 35.5847 44.7471 36.1641L44.7461 36.1631C43.387 36.7445 41.9328 37.0352 40.3867 37.0352H40.3838L37.6289 36.9961L37.3828 36.9922V31.083L37.6357 31.0869L40.3477 31.126C41.1845 31.1259 41.8837 31.0168 42.4512 30.8057L42.4561 30.8037L42.667 30.7246C43.1492 30.531 43.5585 30.2762 43.8975 29.9639L43.9004 29.9609C44.2921 29.6123 44.6005 29.2088 44.8271 28.75L44.8301 28.7451C44.9129 28.5862 44.9875 28.4226 45.0586 28.2578C44.9921 28.3016 44.9232 28.3448 44.8516 28.3848L44.8467 28.3877C44.4262 28.6087 43.9588 28.7876 43.4473 28.9238L43.4463 28.9229C42.9498 29.0717 42.4269 29.1726 41.8789 29.2266L41.8799 29.2275C41.3501 29.2811 40.8519 29.3086 40.3867 29.3086C38.8433 29.3085 37.3851 29.0452 36.0146 28.5186C34.6585 27.992 33.463 27.2414 32.4336 26.2676L32.4316 26.2656C31.4134 25.2758 30.6107 24.0708 30.0225 22.6553C29.4317 21.2337 29.1387 19.6352 29.1387 17.8643C29.1387 16.2355 29.4325 14.7159 30.0225 13.3096C30.6104 11.9083 31.4123 10.6918 32.4277 9.66406L32.4287 9.66309C33.4568 8.63649 34.6502 7.83222 36.0059 7.25195C37.3782 6.67045 38.8401 6.37996 40.3867 6.37988ZM40.3877 11.8477C39.6089 11.8477 38.8684 11.9784 38.1689 12.2402H38.167C37.4785 12.5033 36.8722 12.8923 36.3516 13.4053L36.3496 13.4082C35.8404 13.9239 35.4406 14.5613 35.1484 15.3145C34.8534 16.0622 34.709 16.9137 34.709 17.8633C34.709 18.7748 34.8538 19.606 35.1484 20.3525L35.1494 20.3535C35.4419 21.0808 35.8401 21.7104 36.3467 22.2373L36.3496 22.2393C36.8688 22.7647 37.4725 23.1729 38.1592 23.4629L38.165 23.4648C38.8655 23.7409 39.6072 23.8789 40.3877 23.8789C41.1745 23.8788 41.9159 23.7126 42.6074 23.3789L42.6094 23.3779C43.3054 23.0349 43.9137 22.5878 44.4307 22.0371L44.4326 22.0342C44.9483 21.4709 45.3531 20.8315 45.6455 20.1182L45.6445 20.1172C45.9512 19.3881 46.1064 18.6362 46.1064 17.8633C46.1064 17.1863 45.9888 16.5296 45.7529 15.8955L45.6445 15.625C45.3887 14.9904 45.0466 14.4219 44.6191 13.9209L44.4307 13.71C43.9142 13.1465 43.3067 12.6992 42.6104 12.3691C41.9181 12.0211 41.1763 11.8477 40.3877 11.8477Z" fill="white"/>
<path d="M82.7118 28.6619H77.2227V7.44202H78.5497L80.3593 9.50258C81.244 8.71006 82.2426 8.10245 83.3552 7.67977C84.4812 7.24388 85.6541 7.02594 86.8739 7.02594C88.1875 7.02594 89.4274 7.27691 90.5936 7.77884C91.7598 8.26756 92.7785 8.94781 93.6498 9.81959C94.5211 10.6782 95.2047 11.6886 95.7007 12.851C96.21 14.0002 96.4647 15.2286 96.4647 16.5362V28.6619H90.9756V16.5362C90.9756 15.9815 90.8684 15.4597 90.6539 14.971C90.4394 14.4691 90.1445 14.0332 89.7692 13.6633C89.3939 13.2935 88.9582 13.0029 88.4623 12.7916C87.9663 12.5802 87.4368 12.4745 86.8739 12.4745C86.2975 12.4745 85.7546 12.5802 85.2452 12.7916C84.7358 13.0029 84.2935 13.2935 83.9182 13.6633C83.5429 14.0332 83.2479 14.4691 83.0335 14.971C82.819 15.4597 82.7118 15.9815 82.7118 16.5362V28.6619Z" fill="white"/>
<path d="M119.205 11.6622L115.184 15.6446C114.983 15.0899 114.708 14.5945 114.36 14.1587C114.011 13.7096 113.616 13.3331 113.173 13.0293C112.744 12.7255 112.275 12.4944 111.766 12.3358C111.257 12.1773 110.734 12.0981 110.198 12.0981C109.447 12.0981 108.736 12.25 108.066 12.5538C107.409 12.8576 106.833 13.2869 106.337 13.8416C105.855 14.3832 105.472 15.0304 105.191 15.7833C104.91 16.5362 104.769 17.3684 104.769 18.2798C104.769 19.0195 104.91 19.7129 105.191 20.3602C105.472 21.0074 105.855 21.5754 106.337 22.0641C106.833 22.5528 107.409 22.9359 108.066 23.2133C108.736 23.4906 109.447 23.6293 110.198 23.6293C110.734 23.6293 111.25 23.5567 111.746 23.4114C112.242 23.2661 112.704 23.0614 113.133 22.7972C113.575 22.5198 113.964 22.1896 114.299 21.8065C114.648 21.4103 114.929 20.9744 115.144 20.4989L119.165 24.4813C118.656 25.1946 118.066 25.8352 117.396 26.4032C116.739 26.9711 116.022 27.4533 115.244 27.8495C114.48 28.2458 113.669 28.543 112.811 28.7411C111.967 28.9525 111.096 29.0581 110.198 29.0581C108.683 29.0581 107.255 28.7807 105.915 28.226C104.588 27.658 103.422 26.8853 102.416 25.9078C101.424 24.9304 100.64 23.7878 100.064 22.4802C99.4874 21.1725 99.1992 19.7724 99.1992 18.2798C99.1992 16.6551 99.4874 15.1361 100.064 13.7228C100.64 12.3094 101.424 11.081 102.416 10.0375C103.422 8.98083 104.588 8.14868 105.915 7.54107C107.255 6.93347 108.683 6.62967 110.198 6.62967C111.096 6.62967 111.974 6.74194 112.832 6.96649C113.703 7.19104 114.527 7.52126 115.305 7.95715C116.096 8.37983 116.819 8.90157 117.476 9.52239C118.146 10.1432 118.723 10.8565 119.205 11.6622Z" fill="white"/>
<path d="M129.286 25.9598L135.446 7H142.078L132.742 31.5885C132.541 32.1284 132.269 32.7077 131.926 33.3265C131.597 33.9454 131.146 34.5313 130.574 35.0843C130.016 35.6504 129.307 36.1113 128.449 36.4668C127.605 36.8223 126.567 37 125.337 37C124.75 37 124.271 36.9671 123.899 36.9013C123.527 36.8354 123.083 36.7433 122.568 36.6248V32.4575C122.725 32.4575 122.89 32.4575 123.062 32.4575C123.233 32.4707 123.398 32.4773 123.555 32.4773C124.371 32.4773 125.036 32.3917 125.551 32.2205C126.066 32.0494 126.481 31.786 126.796 31.4305C127.111 31.0882 127.361 30.6406 127.547 30.0876L129.286 25.9598ZM126.71 7L131.754 22.4839L132.634 28.5076L128.427 28.9223L120.078 7H126.71Z" fill="white"/>
</svg>
